<svg width="32" height="32" viewBox="0 0 32 32" fill="none" xmlns="http://www.w3.org/2000/svg">
<path d="M15.5156 31.7969C24.3522 31.7969 31.5156 24.6334 31.5156 15.7969C31.5156 6.96032 24.3522 -0.203125 15.5156 -0.203125C6.67907 -0.203125 -0.484375 6.96032 -0.484375 15.7969C-0.484375 24.6334 6.67907 31.7969 15.5156 31.7969Z" fill="#35BAEB"/>
<path d="M8.5158 4.79688L14.7898 10.3619C14.8628 10.4289 14.9418 10.4849 15.0028 10.5569C15.0098 10.5995 15.0128 10.6427 15.0118 10.6859C15.0088 13.0829 15.0178 15.4779 15.0088 17.8719C14.695 17.9365 14.3942 18.0531 14.1188 18.2169L8.5758 12.6749C8.55443 12.6575 8.53782 12.635 8.5275 12.6095C8.51718 12.5839 8.5135 12.5562 8.5168 12.5289C8.5228 9.95088 8.5168 7.37487 8.5228 4.79887L8.5158 4.79688ZM15.9628 13.4039C17.4821 13.5055 18.9264 14.1019 20.0748 15.1019C19.7478 15.4519 19.3948 15.7819 19.0568 16.1249C18.3428 16.8369 17.6338 17.5549 16.9168 18.2599C16.6272 18.0709 16.304 17.9392 15.9648 17.8719C15.9568 16.3849 15.9648 14.8949 15.9648 13.4039H15.9628ZM8.5188 14.0719C10.1468 15.6849 11.7648 17.3089 13.3898 18.9249C13.1998 19.2199 13.0638 19.5449 12.9878 19.8879H8.5158V14.0689L8.5188 14.0719ZM20.1248 16.4049C20.3378 16.2009 20.5328 15.9819 20.7578 15.7849C21.7579 16.9287 22.3551 18.369 22.4578 19.8849C20.9908 19.8909 19.5208 19.8849 18.0538 19.8879C17.9658 19.9079 17.9658 19.8059 17.9488 19.7509C17.8785 19.4613 17.7569 19.1866 17.5898 18.9399C18.4298 18.0939 19.2788 17.2509 20.1248 16.4079V16.4049ZM8.5158 20.8389H12.3368C12.5558 20.8389 12.7748 20.8289 12.9968 20.8439C13.0648 21.1819 13.1968 21.5039 13.3838 21.7919L10.2838 24.8839C10.2608 24.9019 10.2228 24.9569 10.1958 24.9139C9.20648 23.775 8.61652 22.344 8.5158 20.8389ZM17.9778 20.8439C18.6078 20.8299 19.2318 20.8439 19.8618 20.8389H22.4578C22.3597 22.3314 21.778 23.7514 20.8008 24.8839L18.9928 23.0819C18.5408 22.6269 18.0798 22.1799 17.6328 21.7189C17.7998 21.4509 17.9168 21.1539 17.9778 20.8439ZM16.7238 22.5739C16.7938 22.5339 16.8638 22.4919 16.9338 22.4569L20.0898 25.6069C18.94 26.6153 17.489 27.2154 15.9628 27.3139V22.8509C16.2285 22.7975 16.4842 22.703 16.7208 22.5709L16.7238 22.5739ZM12.1328 24.3679C12.7748 23.7319 13.4098 23.0879 14.0578 22.4579C14.3478 22.6439 14.6708 22.7779 15.0078 22.8509V27.3139C13.4879 27.2147 12.0428 26.618 10.8958 25.6159C11.2988 25.1929 11.7218 24.7879 12.1328 24.3709V24.3679Z" fill="white"/>
</svg>
