<svg width="20" height="20" viewBox="0 0 20 20" fill="none" xmlns="http://www.w3.org/2000/svg">
<path fill-rule="evenodd" clip-rule="evenodd" d="M16.6259 5.90607C16.6345 5.25516 16.3905 4.60151 15.8939 4.10484C15.3972 3.60817 14.7435 3.36417 14.0926 3.37283C14.0924 3.37283 14.0929 3.37283 14.0926 3.37283C13.7329 3.37772 13.3732 3.45981 13.0421 3.61907C12.9235 3.67615 12.8084 3.74314 12.6981 3.82004C12.6557 3.84966 12.601 3.85642 12.5532 3.83658C12.5054 3.81677 12.4715 3.77334 12.4624 3.72241C12.4388 3.59006 12.4048 3.46131 12.3613 3.33705C12.2398 2.99032 12.044 2.6785 11.7931 2.42065C11.7929 2.42047 11.7933 2.42082 11.7931 2.42065C11.3389 1.95426 10.7037 1.66406 10.0013 1.66406C9.29891 1.66406 8.66417 1.95373 8.21003 2.42012C8.20986 2.42029 8.2102 2.41994 8.21003 2.42012C7.9591 2.67797 7.76283 2.99032 7.64133 3.33705C7.59779 3.46131 7.56378 3.59006 7.54019 3.72241C7.53111 3.77333 7.49721 3.81677 7.44942 3.83658C7.4016 3.85641 7.34695 3.84966 7.30448 3.82004C7.19422 3.74314 7.07914 3.67615 6.96049 3.61907C6.6294 3.45981 6.27048 3.37773 5.91071 3.37284C5.91047 3.37284 5.91096 3.37284 5.91071 3.37284C5.2598 3.36418 4.60541 3.60817 4.10875 4.10484C3.61208 4.60151 3.36808 5.25516 3.37674 5.90607C3.37674 5.90632 3.37673 5.90583 3.37674 5.90607C3.38163 6.26584 3.46371 6.62548 3.62298 6.95657C3.68005 7.07523 3.74704 7.19031 3.82395 7.30057C3.85356 7.34304 3.86032 7.39769 3.84049 7.44552C3.82067 7.4933 3.77724 7.52721 3.72631 7.53629C3.59396 7.55988 3.46521 7.59389 3.34095 7.63743C2.99422 7.75893 2.6824 7.95468 2.42455 8.20561C2.42438 8.20578 2.42473 8.20544 2.42455 8.20561C1.95816 8.65975 1.66797 9.295 1.66797 9.9974C1.66797 10.6998 1.95764 11.3345 2.42403 11.7887C2.4242 11.7888 2.42385 11.7885 2.42403 11.7887C2.68187 12.0396 2.99422 12.2359 3.34094 12.3574C3.46521 12.4009 3.59396 12.4349 3.72631 12.4585C3.77724 12.4676 3.82067 12.5015 3.84049 12.5493C3.86032 12.5971 3.85356 12.6518 3.82395 12.6942C3.74704 12.8045 3.68005 12.9196 3.62298 13.0382C3.46371 13.3693 3.38164 13.7282 3.37675 14.088C3.37674 14.0882 3.37675 14.0877 3.37675 14.088C3.36809 14.7389 3.61208 15.3933 4.10875 15.89C4.60541 16.3866 5.25907 16.6306 5.90998 16.622C5.91023 16.622 5.90974 16.622 5.90998 16.622C6.26974 16.6171 6.62938 16.535 6.96047 16.3757C7.07912 16.3187 7.19421 16.2517 7.30448 16.1748C7.34694 16.1451 7.4016 16.1384 7.44942 16.1582C7.49721 16.178 7.53112 16.2215 7.54019 16.2724C7.56379 16.4047 7.5978 16.5335 7.64134 16.6578C7.76284 17.0045 7.95859 17.3163 8.20952 17.5741C8.20969 17.5743 8.20935 17.574 8.20952 17.5741C8.66366 18.0405 9.29891 18.3307 10.0013 18.3307C10.7037 18.3307 11.3384 18.0411 11.7926 17.5747C11.7927 17.5745 11.7924 17.5748 11.7926 17.5747C12.0435 17.3168 12.2398 17.0045 12.3613 16.6578C12.4048 16.5335 12.4388 16.4047 12.4624 16.2724C12.4715 16.2215 12.5054 16.178 12.5532 16.1582C12.601 16.1384 12.6557 16.1451 12.6981 16.1748C12.8084 16.2517 12.9235 16.3187 13.0421 16.3757C13.3732 16.535 13.7321 16.6171 14.0919 16.622C14.0921 16.622 14.0916 16.6219 14.0919 16.622C14.7428 16.6306 15.3972 16.3866 15.8939 15.89C16.3905 15.3933 16.6345 14.7396 16.6259 14.0887C16.6259 14.0885 16.6259 14.089 16.6259 14.0887C16.621 13.729 16.5389 13.3693 16.3796 13.0382C16.3226 12.9196 16.2556 12.8045 16.1787 12.6942C16.149 12.6518 16.1423 12.5971 16.1621 12.5493C16.1819 12.5015 16.2254 12.4676 16.2763 12.4585C16.4086 12.4349 16.5374 12.4009 16.6617 12.3574C17.0084 12.2359 17.3202 12.0401 17.5781 11.7892C17.5782 11.789 17.5779 11.7894 17.5781 11.7892C18.0444 11.335 18.3346 10.6998 18.3346 9.9974C18.3346 9.295 18.045 8.66027 17.5786 8.20612C17.5784 8.20595 17.5788 8.2063 17.5786 8.20612C17.3207 7.95519 17.0084 7.75893 16.6617 7.63743C16.5374 7.59389 16.4086 7.55988 16.2763 7.53629C16.2254 7.52721 16.1819 7.4933 16.1621 7.44552C16.1423 7.39769 16.149 7.34304 16.1787 7.30057C16.2556 7.1903 16.3226 7.07522 16.3796 6.95656C16.5389 6.62548 16.621 6.26584 16.6259 5.90607C16.6259 5.90632 16.6259 5.90583 16.6259 5.90607ZM14.7153 5.28335C14.4267 4.99467 13.9756 4.9611 13.6515 5.18708C13.1599 5.52993 12.5071 5.62175 11.9148 5.37613C11.324 5.13115 10.9269 4.6056 10.8216 4.01488C10.7523 3.62598 10.4096 3.33073 10.0013 3.33073C9.59304 3.33073 9.25032 3.62597 9.18099 4.01488C9.0757 4.60559 8.67861 5.13115 8.08784 5.37613C7.49553 5.62174 6.84267 5.52993 6.35107 5.18708C6.02705 4.96109 5.57594 4.99467 5.28726 5.28335C4.99857 5.57203 4.965 6.02314 5.19098 6.34717C5.53384 6.83877 5.62565 7.49163 5.38004 8.08393C5.13506 8.6747 4.6095 9.07179 4.01879 9.17709C3.62988 9.24642 3.33464 9.58914 3.33464 9.9974C3.33464 10.4057 3.62988 10.7484 4.01879 10.8177C4.6095 10.923 5.13506 11.3201 5.38004 11.9109C5.62565 12.5032 5.53384 13.156 5.19098 13.6476C4.965 13.9716 4.99857 14.4228 5.28726 14.7114C5.57594 15.0001 6.02705 15.0337 6.35107 14.8077C6.84266 14.4649 7.49552 14.373 8.08783 14.6187C8.6786 14.8636 9.0757 15.3892 9.181 15.9799C9.25032 16.3688 9.59304 16.6641 10.0013 16.6641C10.4096 16.6641 10.7523 16.3688 10.8216 15.9799C10.9269 15.3892 11.324 14.8636 11.9148 14.6187C12.5071 14.373 13.1599 14.4649 13.6515 14.8077C13.9756 15.0337 14.4267 15.0001 14.7153 14.7114C15.004 14.4228 15.0376 13.9716 14.8116 13.6476C14.4688 13.156 14.377 12.5032 14.6226 11.9109C14.8675 11.3201 15.3931 10.923 15.9838 10.8177C16.3727 10.7484 16.668 10.4057 16.668 9.9974C16.668 9.58914 16.3727 9.24642 15.9838 9.17709C15.3931 9.07179 14.8675 8.6747 14.6226 8.08393C14.377 7.49162 14.4688 6.83876 14.8116 6.34716C15.0376 6.02314 15.004 5.57203 14.7153 5.28335Z" fill="#777E91"/>
<path fill-rule="evenodd" clip-rule="evenodd" d="M10.0013 11.6641C10.9218 11.6641 11.668 10.9179 11.668 9.9974C11.668 9.07692 10.9218 8.33073 10.0013 8.33073C9.08083 8.33073 8.33464 9.07692 8.33464 9.9974C8.33464 10.9179 9.08083 11.6641 10.0013 11.6641ZM10.0013 13.3307C11.8423 13.3307 13.3346 11.8383 13.3346 9.9974C13.3346 8.15645 11.8423 6.66406 10.0013 6.66406C8.16035 6.66406 6.66797 8.15645 6.66797 9.9974C6.66797 11.8383 8.16035 13.3307 10.0013 13.3307Z" fill="#777E91"/>
</svg>
