<svg width="21" height="20" viewBox="0 0 21 20" fill="none" xmlns="http://www.w3.org/2000/svg">
<path fill-rule="evenodd" clip-rule="evenodd" d="M10.431 16.6641C14.1129 16.6641 17.0977 13.6793 17.0977 9.9974C17.0977 6.3155 14.1129 3.33073 10.431 3.33073C6.74909 3.33073 3.76432 6.3155 3.76432 9.9974C3.76432 13.6793 6.74909 16.6641 10.431 16.6641ZM10.431 18.3307C15.0334 18.3307 18.7643 14.5998 18.7643 9.9974C18.7643 5.39502 15.0334 1.66406 10.431 1.66406C5.82862 1.66406 2.09766 5.39502 2.09766 9.9974C2.09766 14.5998 5.82862 18.3307 10.431 18.3307Z" fill="#777E91"/>
<path d="M9.59766 5.83333C9.59766 5.3731 9.97075 5 10.431 5C10.8912 5 11.2643 5.3731 11.2643 5.83333C12.645 5.83333 13.7643 6.95262 13.7643 8.33333C13.7643 8.79357 13.3912 9.16667 12.931 9.16667C12.4708 9.16667 12.0977 8.79357 12.0977 8.33333C12.0977 7.8731 11.7246 7.5 11.2643 7.5H9.38384C9.04169 7.5 8.76432 7.77737 8.76432 8.11951C8.76432 8.38617 8.93496 8.62291 9.18793 8.70724L12.2011 9.71162C13.1346 10.0228 13.7643 10.8964 13.7643 11.8805C13.7643 13.1431 12.7408 14.1667 11.4781 14.1667H11.2643C11.2643 14.6269 10.8912 15 10.431 15C9.97075 15 9.59766 14.6269 9.59766 14.1667C8.21694 14.1667 7.09766 13.0474 7.09766 11.6667C7.09766 11.2064 7.47075 10.8333 7.93099 10.8333C8.39123 10.8333 8.76432 11.2064 8.76432 11.6667C8.76432 12.1269 9.13742 12.5 9.59766 12.5H11.4781C11.8203 12.5 12.0977 12.2226 12.0977 11.8805C12.0977 11.6138 11.927 11.3771 11.674 11.2928L8.66088 10.2884C7.72734 9.97719 7.09766 9.10356 7.09766 8.11951C7.09766 6.85689 8.12121 5.83333 9.38384 5.83333H9.59766Z" fill="#777E91"/>
</svg>
