<svg width="104" height="34" viewBox="0 0 104 34" fill="none" xmlns="http://www.w3.org/2000/svg">
<path d="M1 33.0031H3.85269C4.32634 33.0031 4.77564 32.7933 5.07965 32.43L10.8724 25.5089C10.9313 25.4385 10.9841 25.3632 11.0301 25.2838L15.1435 18.1804C15.6071 17.3798 16.6511 17.138 17.4194 17.6535L25.704 23.2113C26.3404 23.6382 27.1901 23.5539 27.7303 23.0104L30.6158 20.1068C31.1797 19.5393 32.076 19.4756 32.7145 19.9575L35.7134 22.2208C36.1421 22.5444 36.7046 22.6312 37.2109 22.4521L42.4375 20.6031L47.4075 18.3003C47.5466 18.2358 47.6757 18.1518 47.7908 18.0506L52.9471 13.5212C53.5464 12.9947 54.442 12.9902 55.0466 13.5105L59.1777 17.0653C59.4329 17.2849 59.7509 17.4184 60.0864 17.4468L65.5469 17.9088H72.2011C72.7041 17.9088 73.1778 17.6723 73.48 17.2702L79.0136 9.9098C79.0669 9.83881 79.1261 9.77238 79.1905 9.71121L87.3131 1.99546C88.1779 1.17405 89.605 1.55346 89.9476 2.69586L92.7673 12.097C92.9349 12.6559 93.3935 13.0792 93.964 13.2017L97.8444 14.0347C98.5387 14.1838 99.0517 14.7726 99.1042 15.4808L99.8902 26.0874C99.9521 26.9229 100.648 27.5692 101.486 27.5692H103" stroke="#58BD7D" stroke-width="1.6" stroke-linecap="round" stroke-linejoin="round"/>
<path d="M3.85269 33.0031H1L101.394 33.3968C102.28 33.4003 103 32.6829 103 31.7968V29.1247C103 28.2656 102.304 27.5692 101.444 27.5692C100.63 27.5692 99.9534 26.9409 99.8932 26.1286L99.1042 15.4808C99.0517 14.7726 98.5387 14.1838 97.8444 14.0347L93.964 13.2017C93.3935 13.0792 92.9349 12.6559 92.7673 12.097L89.9476 2.69586C89.605 1.55346 88.1779 1.17405 87.3131 1.99546L79.1905 9.71121C79.1261 9.77238 79.0669 9.83881 79.0135 9.9098L73.48 17.2703C73.1778 17.6723 72.7041 17.9088 72.2011 17.9088H65.5469L60.0864 17.4468C59.7509 17.4184 59.4329 17.2849 59.1777 17.0653L55.0466 13.5105C54.442 12.9902 53.5464 12.9947 52.9471 13.5212L47.7908 18.0506C47.6757 18.1518 47.5466 18.2358 47.4075 18.3003L42.4375 20.6031L37.2109 22.4521C36.7046 22.6312 36.1421 22.5444 35.7134 22.2208L32.7145 19.9575C32.076 19.4756 31.1797 19.5393 30.6158 20.1068L27.7303 23.0104C27.1901 23.5539 26.3404 23.6382 25.704 23.2113L17.4194 17.6535C16.6511 17.1381 15.6071 17.3798 15.1435 18.1804L11.0301 25.2838C10.9841 25.3632 10.9313 25.4385 10.8724 25.5089L5.07965 32.43C4.77564 32.7933 4.32634 33.0031 3.85269 33.0031Z" fill="url(#paint0_linear_301_53666)"/>
<defs>
<linearGradient id="paint0_linear_301_53666" x1="52.6" y1="-59.8271" x2="51.9617" y2="33.0029" gradientUnits="userSpaceOnUse">
<stop stop-color="#45B36B"/>
<stop offset="1" stop-color="#45B36B" stop-opacity="0"/>
</linearGradient>
</defs>
</svg>
