<svg width="32" height="32" viewBox="0 0 32 32" fill="none" xmlns="http://www.w3.org/2000/svg">
<path d="M16 32C24.8366 32 32 24.8366 32 16C32 7.16344 24.8366 0 16 0C7.16344 0 0 7.16344 0 16C0 24.8366 7.16344 32 16 32Z" fill="#3555F9"/>
<path d="M13.8757 6.92382C14.7257 6.76582 15.5957 6.78382 16.4557 6.82682C17.4477 6.94282 18.4417 7.15082 19.3537 7.56082C21.1752 8.32195 22.7191 9.62394 23.7767 11.2908C24.1697 11.8638 24.4337 12.5058 24.6987 13.1428C24.9447 12.7508 25.1647 12.3428 25.3787 11.9328C25.4707 11.7398 25.6637 11.5908 25.8887 11.6008C26.0384 11.5891 26.1868 11.6356 26.303 11.7306C26.4192 11.8256 26.4943 11.9618 26.5127 12.1108C26.5377 12.3508 26.3867 12.5578 26.2877 12.7658C25.9757 13.3958 25.5727 13.9778 25.1557 14.5458C25.0787 14.6278 25.1107 14.7418 25.1197 14.8418C25.5837 17.5788 24.7007 20.4918 22.8197 22.5538C21.7353 23.7591 20.3688 24.6765 18.8427 25.2238C17.0847 25.8388 15.1487 25.9778 13.3307 25.5478C10.6947 24.9768 8.36269 23.2388 7.03669 20.9328C6.74669 20.4658 6.56169 19.9468 6.33269 19.4508C6.08269 19.8358 5.87069 20.2408 5.65769 20.6448C5.60765 20.7449 5.53234 20.8303 5.43921 20.8924C5.34608 20.9544 5.23835 20.9911 5.12669 20.9988C4.74569 20.9988 4.39969 20.5888 4.55269 20.2238C4.88069 19.4698 5.32969 18.7718 5.83269 18.1198C5.94069 18.0068 5.92569 17.8468 5.90569 17.7058C5.71892 16.5025 5.77331 15.274 6.06569 14.0918C6.83569 10.7678 9.59569 7.99182 12.9407 7.12682C13.2507 7.05382 13.5607 6.97682 13.8757 6.92382ZM11.5137 8.93382C9.74069 9.86582 8.31369 11.4248 7.57369 13.2658C7.14569 14.3778 6.92769 15.5738 6.99369 16.7638C7.18147 16.6229 7.36047 16.4706 7.52969 16.3078C8.52469 15.4198 9.68969 14.7318 10.9077 14.1838C13.1707 13.1548 15.6627 12.7118 18.1387 12.5918C17.3017 11.7238 16.3937 10.9228 15.5567 10.0548C15.8207 9.76482 16.1067 9.49682 16.3927 9.22882C16.7177 9.52282 17.0177 9.84182 17.3357 10.1428C18.3657 11.1678 19.4267 12.1628 20.4397 13.2018C19.3597 14.2788 18.2517 15.3288 17.1717 16.4058C17.0807 16.4914 16.9852 16.5722 16.8857 16.6478C16.6137 16.3738 16.2977 16.1338 16.0797 15.8128C16.7437 15.1168 17.4997 14.5068 18.1367 13.7858C16.9947 13.8018 15.8587 13.9638 14.7407 14.1858C13.8377 14.3468 12.9697 14.6518 12.1027 14.9428C10.2867 15.6228 8.61169 16.7068 7.33469 18.1568C7.25869 18.2318 7.26969 18.3428 7.28969 18.4368C7.44069 19.0848 7.72569 19.6908 8.03769 20.2768C9.06769 22.1338 10.8477 23.5688 12.8927 24.2168C14.0887 24.5848 15.3647 24.7268 16.6087 24.5538C18.3476 24.3354 19.9782 23.5904 21.2817 22.4188C23.1467 20.7748 24.1927 18.2698 24.0317 15.8108C23.8347 15.9638 23.6587 16.1378 23.4747 16.3038C22.2238 17.38 20.785 18.216 19.2307 18.7698C17.2107 19.5198 15.0587 19.9078 12.9037 19.9688C13.0917 20.2148 13.3237 20.4208 13.5427 20.6398C14.1877 21.2678 14.8237 21.9038 15.4787 22.5218C15.2267 22.8188 14.9327 23.0778 14.6547 23.3498C14.3757 23.1228 14.1347 22.8588 13.8747 22.6098C12.9007 21.6658 11.9367 20.7098 10.9647 19.7618C10.8301 19.6394 10.7063 19.5055 10.5947 19.3618C11.0157 18.9098 11.4997 18.5198 11.9307 18.0778C12.6707 17.3628 13.3907 16.6268 14.1397 15.9208C14.4197 16.1928 14.7137 16.4528 14.9627 16.7538C14.2967 17.4438 13.5877 18.0928 12.9127 18.7738C13.6527 18.8108 14.3827 18.6838 15.1167 18.6138C15.6467 18.5578 16.1677 18.4378 16.6907 18.3288C19.3757 17.7088 21.9907 16.4338 23.7927 14.3328C23.1027 11.3488 20.5657 8.89282 17.5467 8.19882C15.5357 7.68782 13.3427 7.97882 11.5137 8.93382Z" fill="white"/>
</svg>
