<svg width="16" height="16" viewBox="0 0 16 16" fill="none" xmlns="http://www.w3.org/2000/svg">
<path fill-rule="evenodd" clip-rule="evenodd" d="M4.86225 6.80734C5.1226 7.06769 5.54471 7.06769 5.80506 6.80734L7.66699 4.94541L9.52892 6.80734C9.78927 7.06769 10.2114 7.06769 10.4717 6.80734C10.7321 6.54699 10.7321 6.12488 10.4717 5.86453L8.1384 3.5312C7.87805 3.27085 7.45594 3.27085 7.19559 3.5312L4.86225 5.86453C4.6019 6.12488 4.6019 6.54699 4.86225 6.80734Z" fill="#E6E8EC"/>
<path fill-rule="evenodd" clip-rule="evenodd" d="M4.86225 9.19656C5.1226 8.93621 5.54471 8.93621 5.80506 9.19656L7.66699 11.0585L9.52892 9.19656C9.78927 8.93621 10.2114 8.93621 10.4717 9.19656C10.7321 9.45691 10.7321 9.87902 10.4717 10.1394L8.1384 12.4727C7.87805 12.7331 7.45594 12.7331 7.19559 12.4727L4.86225 10.1394C4.6019 9.87902 4.6019 9.45691 4.86225 9.19656Z" fill="#E6E8EC"/>
</svg>
