<svg width="17" height="16" viewBox="0 0 17 16" fill="none" xmlns="http://www.w3.org/2000/svg">
<path fill-rule="evenodd" clip-rule="evenodd" d="M5.35932 6.79953C5.61967 7.05988 6.04178 7.05988 6.30213 6.79953L8.16406 4.9376L10.026 6.79953C10.2863 7.05988 10.7085 7.05988 10.9688 6.79953C11.2292 6.53918 11.2292 6.11707 10.9688 5.85672L8.63547 3.52339C8.37512 3.26304 7.95301 3.26304 7.69266 3.52339L5.35932 5.85672C5.09898 6.11707 5.09898 6.53918 5.35932 6.79953Z" fill="#777E91"/>
<path fill-rule="evenodd" clip-rule="evenodd" d="M5.35932 9.19266C5.61967 8.93231 6.04178 8.93231 6.30213 9.19266L8.16406 11.0546L10.026 9.19266C10.2863 8.93231 10.7085 8.93231 10.9688 9.19266C11.2292 9.45301 11.2292 9.87512 10.9688 10.1355L8.63547 12.4688C8.37512 12.7292 7.95301 12.7292 7.69266 12.4688L5.35932 10.1355C5.09898 9.87512 5.09898 9.45301 5.35932 9.19266Z" fill="#777E91"/>
</svg>
