<svg width="21" height="20" viewBox="0 0 21 20" fill="none" xmlns="http://www.w3.org/2000/svg">
<path fill-rule="evenodd" clip-rule="evenodd" d="M2.38021 2.5C2.84045 2.5 3.21354 2.8731 3.21354 3.33333V15C3.21354 15.4602 3.58664 15.8333 4.04687 15.8333H19.0469C19.5071 15.8333 19.8802 16.2064 19.8802 16.6667C19.8802 17.1269 19.5071 17.5 19.0469 17.5H4.04687C2.66616 17.5 1.54688 16.3807 1.54688 15V3.33333C1.54688 2.8731 1.91997 2.5 2.38021 2.5Z" fill="#777E91"/>
<path d="M15.7161 4.16406C15.2559 4.16406 14.8828 4.53716 14.8828 4.9974V13.3307C14.8828 13.791 15.2559 14.1641 15.7161 14.1641C16.1764 14.1641 16.5495 13.791 16.5495 13.3307V4.9974C16.5495 4.53716 16.1764 4.16406 15.7161 4.16406Z" fill="#777E91"/>
<path d="M9.04948 5.83073C8.58924 5.83073 8.21615 6.20383 8.21615 6.66406V13.3307C8.21615 13.791 8.58924 14.1641 9.04948 14.1641C9.50972 14.1641 9.88281 13.791 9.88281 13.3307V6.66406C9.88281 6.20383 9.50972 5.83073 9.04948 5.83073Z" fill="#777E91"/>
<path d="M5.71615 10.8307C5.25591 10.8307 4.88281 11.2038 4.88281 11.6641V13.3307C4.88281 13.791 5.25591 14.1641 5.71615 14.1641C6.17638 14.1641 6.54948 13.791 6.54948 13.3307V11.6641C6.54948 11.2038 6.17638 10.8307 5.71615 10.8307Z" fill="#777E91"/>
<path d="M11.5495 8.33073C11.5495 7.87049 11.9226 7.4974 12.3828 7.4974C12.8431 7.4974 13.2161 7.87049 13.2161 8.33073V13.3307C13.2161 13.791 12.8431 14.1641 12.3828 14.1641C11.9226 14.1641 11.5495 13.791 11.5495 13.3307V8.33073Z" fill="#777E91"/>
</svg>
