<svg width="16" height="16" viewBox="0 0 16 16" fill="none" xmlns="http://www.w3.org/2000/svg">
<path fill-rule="evenodd" clip-rule="evenodd" d="M8.00016 13.3359C10.9457 13.3359 13.3335 10.9481 13.3335 8.0026C13.3335 5.05709 10.9457 2.66927 8.00016 2.66927C5.05464 2.66927 2.66683 5.05709 2.66683 8.0026C2.66683 10.9481 5.05464 13.3359 8.00016 13.3359ZM8.00016 14.6693C11.6821 14.6693 14.6668 11.6845 14.6668 8.0026C14.6668 4.32071 11.6821 1.33594 8.00016 1.33594C4.31826 1.33594 1.3335 4.32071 1.3335 8.0026C1.3335 11.6845 4.31826 14.6693 8.00016 14.6693Z" fill="#777E91"/>
<path fill-rule="evenodd" clip-rule="evenodd" d="M8.00016 4C8.36835 4 8.66683 4.29848 8.66683 4.66667V7.72386L10.1382 9.19526C10.3986 9.45561 10.3986 9.87772 10.1382 10.1381C9.87788 10.3984 9.45577 10.3984 9.19542 10.1381L7.52876 8.4714C7.40373 8.34638 7.3335 8.17681 7.3335 8V4.66667C7.3335 4.29848 7.63197 4 8.00016 4Z" fill="#777E91"/>
</svg>
