<svg width="32" height="32" viewBox="0 0 32 32" fill="none" xmlns="http://www.w3.org/2000/svg">
<path fill-rule="evenodd" clip-rule="evenodd" d="M7.05849 7.05459C7.57919 6.53389 8.42341 6.53389 8.94411 7.05459L16.0013 14.1118L23.0585 7.05459C23.5792 6.53389 24.4234 6.53389 24.9441 7.05459C25.4648 7.57529 25.4648 8.41951 24.9441 8.94021L17.8869 15.9974L24.9441 23.0546C25.4648 23.5753 25.4648 24.4195 24.9441 24.9402C24.4234 25.4609 23.5792 25.4609 23.0585 24.9402L16.0013 17.883L8.94411 24.9402C8.42341 25.4609 7.57919 25.4609 7.05849 24.9402C6.53779 24.4195 6.53779 23.5753 7.05849 23.0546L14.1157 15.9974L7.05849 8.94021C6.53779 8.41951 6.53779 7.57529 7.05849 7.05459Z" fill="#777E91"/>
</svg>
