<svg width="11" height="11" viewBox="0 0 11 11" fill="none" xmlns="http://www.w3.org/2000/svg">
<path d="M1.38724 8.10636L1.37867 8.11398C1.26299 7.88907 1.19015 7.63366 1.16016 7.35156C1.19015 7.62984 1.27156 7.88144 1.38724 8.10636Z" fill="#9AA3AB"/>
<path d="M4.14084 4.81455C4.70403 4.81455 5.16058 4.40835 5.16058 3.90728C5.16058 3.4062 4.70403 3 4.14084 3C3.57765 3 3.12109 3.4062 3.12109 3.90728C3.12109 4.40835 3.57765 4.81455 4.14084 4.81455Z" fill="#9AA3AB"/>
<path d="M7.21663 1.61719H3.6261C2.06649 1.61719 1.13672 2.44441 1.13672 3.83201V7.02654C1.13672 7.44206 1.21813 7.8042 1.37666 8.10917C1.74514 8.83347 2.53351 9.24136 3.6261 9.24136H7.21663C8.77624 9.24136 9.70601 8.41414 9.70601 7.02654V6.15357V3.83201C9.70601 2.44441 8.77624 1.61719 7.21663 1.61719ZM9.00761 5.61988C8.67341 5.36447 8.13354 5.36447 7.79934 5.61988L6.01693 6.98079C5.68273 7.2362 5.14286 7.2362 4.80866 6.98079L4.66298 6.87405C4.35877 6.6377 3.87461 6.61483 3.53183 6.82068L1.92938 7.77752C1.83512 7.56404 1.77942 7.31626 1.77942 7.02654V3.83201C1.77942 2.757 2.41783 2.189 3.6261 2.189H7.21663C8.4249 2.189 9.06331 2.757 9.06331 3.83201V5.66181L9.00761 5.61988Z" fill="#9AA3AB"/>
</svg>
