<svg width="20" height="20" viewBox="0 0 20 20" fill="none" xmlns="http://www.w3.org/2000/svg">
<path fill-rule="evenodd" clip-rule="evenodd" d="M10.0013 3.33073C8.37444 3.33073 6.87477 3.4649 5.67106 3.62388C4.58774 3.76695 3.77086 4.58383 3.62778 5.66715C3.46881 6.87086 3.33464 8.37054 3.33464 9.9974C3.33464 11.6243 3.46881 13.1239 3.62778 14.3276C3.77086 15.411 4.58774 16.2278 5.67106 16.3709C6.87477 16.5299 8.37444 16.6641 10.0013 16.6641C11.6282 16.6641 13.1278 16.5299 14.3315 16.3709C15.4149 16.2278 16.2317 15.411 16.3748 14.3276C16.5338 13.1239 16.668 11.6243 16.668 9.9974C16.668 8.37054 16.5338 6.87086 16.3748 5.66715C16.2317 4.58383 15.4149 3.76695 14.3315 3.62388C13.1278 3.4649 11.6282 3.33073 10.0013 3.33073ZM5.45284 1.97156C3.62217 2.21333 2.21724 3.61827 1.97546 5.44893C1.80925 6.70746 1.66797 8.28179 1.66797 9.9974C1.66797 11.713 1.80925 13.2873 1.97546 14.5459C2.21724 16.3765 3.62217 17.7815 5.45283 18.0232C6.71137 18.1895 8.2857 18.3307 10.0013 18.3307C11.7169 18.3307 13.2912 18.1895 14.5498 18.0232C16.3804 17.7815 17.7854 16.3765 18.0271 14.5459C18.1934 13.2873 18.3346 11.713 18.3346 9.9974C18.3346 8.28179 18.1934 6.70746 18.0271 5.44893C17.7854 3.61827 16.3804 2.21333 14.5498 1.97156C13.2912 1.80534 11.7169 1.66406 10.0013 1.66406C8.2857 1.66406 6.71137 1.80534 5.45284 1.97156Z" fill="#777E91"/>
<path d="M7.49953 9.16927C8.42001 9.16927 9.1662 8.42308 9.1662 7.5026C9.1662 6.58213 8.42001 5.83594 7.49953 5.83594C6.57906 5.83594 5.83287 6.58213 5.83287 7.5026C5.83287 8.42308 6.57906 9.16927 7.49953 9.16927Z" fill="#777E91"/>
<path d="M15.1006 10.592L16.5959 12.0873C16.5443 12.8675 16.469 13.5914 16.3859 14.2343L13.9221 11.7705C13.5967 11.4451 13.069 11.4451 12.7436 11.7705L10.934 13.5802C9.95765 14.5565 8.37474 14.5565 7.39843 13.5802L7.25545 13.4372C6.93001 13.1118 6.40238 13.1118 6.07694 13.4372L4.06939 15.4447C3.83682 15.1294 3.68122 14.751 3.626 14.3328C3.59588 14.1048 3.56665 13.8662 3.53906 13.618L4.89843 12.2587C5.87474 11.2824 7.45765 11.2824 8.43396 12.2587L8.57694 12.4017C8.90238 12.7271 9.43002 12.7271 9.75545 12.4017L11.5651 10.592C12.5414 9.6157 14.1243 9.61571 15.1006 10.592Z" fill="#777E91"/>
</svg>
