<svg width="16" height="16" viewBox="0 0 16 16" fill="none" xmlns="http://www.w3.org/2000/svg">
<path fill-rule="evenodd" clip-rule="evenodd" d="M8 13C10.7614 13 13 10.7614 13 8C13 5.23858 10.7614 3 8 3C5.23858 3 3 5.23858 3 8C3 10.7614 5.23858 13 8 13ZM8 14.25C11.4518 14.25 14.25 11.4518 14.25 8C14.25 4.54822 11.4518 1.75 8 1.75C4.54822 1.75 1.75 4.54822 1.75 8C1.75 11.4518 4.54822 14.25 8 14.25Z" fill="#777E91"/>
<path fill-rule="evenodd" clip-rule="evenodd" d="M8 4.875C7.65482 4.875 7.375 5.15482 7.375 5.5C7.375 5.84518 7.65482 6.125 8 6.125C8.34518 6.125 8.625 5.84518 8.625 5.5C8.625 5.15482 8.34518 4.875 8 4.875ZM8 7.375C7.65482 7.375 7.375 7.65482 7.375 8V10.5C7.375 10.8452 7.65482 11.125 8 11.125C8.34518 11.125 8.625 10.8452 8.625 10.5V8C8.625 7.65482 8.34518 7.375 8 7.375Z" fill="#777E91"/>
</svg>
