<svg width="32" height="32" viewBox="0 0 32 32" fill="none" xmlns="http://www.w3.org/2000/svg">
<path d="M15.9996 19.2503C15.4834 19.1986 14.9673 19.0954 14.4512 18.9922V27.147C14.4512 28.0244 15.1221 28.6954 15.9996 28.6954C16.877 28.6954 17.5479 28.0244 17.5479 27.147V18.9922C17.0318 19.0954 16.5157 19.1986 15.9996 19.2503Z" fill="#0D8DD3"/>
<path d="M15.9996 19.2503C15.4834 19.1986 14.9673 19.0954 14.4512 18.9922V24.2567H17.5479V18.9922C17.0318 19.0954 16.5157 19.1986 15.9996 19.2503Z" fill="#0881C4"/>
<path d="M25.7029 29.4171H6.29643C5.41901 29.4171 4.74805 28.7461 4.74805 27.8687C4.74805 26.9913 5.41901 26.3203 6.29643 26.3203H25.7545C26.6319 26.3203 27.3029 26.9913 27.3029 27.8687C27.2513 28.7461 26.5803 29.4171 25.7029 29.4171Z" fill="#AEBFC1"/>
<path d="M4.74805 27.8687C4.74805 26.9913 5.41901 26.3203 6.29643 26.3203H25.7545C26.6319 26.3203 27.3029 26.9913 27.3029 27.8687" fill="#BECBCC"/>
<path d="M32 20.4878C32 21.3652 31.1226 22.191 30.2968 22.191H1.70323C0.877419 22.191 0 21.3136 0 20.4878V4.12651C0 3.24909 0.877419 2.57812 1.70323 2.57812H30.2452C31.1226 2.57812 32 3.24909 32 4.12651V20.4878Z" fill="#0D8DD3"/>
<path d="M30.2968 2.57812H1.70323C0.877419 2.57812 0 3.24909 0 4.12651V17.9588C0 18.8362 0.877419 19.6104 1.70323 19.6104H30.2452C31.1226 19.6104 31.9484 18.8362 31.9484 17.9588V4.12651C32 3.24909 31.1226 2.57812 30.2968 2.57812Z" fill="#209DE2"/>
<path d="M32 18.062V4.12651C32 3.24909 31.1226 2.57812 30.2968 2.57812H1.70323C0.877419 2.57812 0 3.24909 0 4.12651" fill="#1DAEEF"/>
<path d="M21.6771 26.3203H10.3223V29.4171H21.6771V26.3203Z" fill="#0D8DD3"/>
<path d="M21.6771 26.3203H10.3223V27.8687H21.6771V26.3203Z" fill="#209DE2"/>
<path d="M5.05859 11.1488L8.6715 7.53589C9.13601 7.07137 9.80698 7.07137 10.2715 7.53589C10.736 8.0004 10.736 8.67137 10.2715 9.13589L8.25859 11.1488L10.2715 13.1617C10.736 13.6262 10.736 14.2972 10.2715 14.7617C9.80698 15.2262 9.13601 15.2262 8.6715 14.7617L5.05859 11.1488Z" fill="#0D8DD3"/>
<path d="M6.6582 11.095C6.6582 10.4757 7.17433 9.80469 7.79369 9.80469H12.9034C13.5227 9.80469 14.0388 10.4757 14.0388 11.095C14.0388 11.7144 13.5227 12.3853 12.9034 12.3853H7.74207C7.12272 12.3853 6.6582 11.7144 6.6582 11.095Z" fill="#0D8DD3"/>
<path d="M26.9422 15.3832L23.3292 18.9961C22.8647 19.4606 22.1938 19.4606 21.7292 18.9961C21.2647 18.5316 21.2647 17.8606 21.7292 17.3961L23.7422 15.3832L21.7292 13.3703C21.2647 12.9057 21.2647 12.2348 21.7292 11.7703C22.1938 11.3057 22.8647 11.3057 23.3292 11.7703L26.9422 15.3832Z" fill="#0D8DD3"/>
<path d="M25.3416 15.4854C25.3416 16.1047 24.8255 16.5176 24.2061 16.5176H19.0964C18.4771 16.5176 17.9609 16.1047 17.9609 15.4854C17.9609 14.866 18.4771 14.4531 19.0964 14.4531H24.2577C24.8771 14.4531 25.3416 14.866 25.3416 15.4854Z" fill="#0D8DD3"/>
<path d="M15.7424 6.29688C15.5876 6.29688 15.4844 6.4001 15.4844 6.55494V19.9743C15.4844 20.1291 15.5876 20.2324 15.7424 20.2324C15.8973 20.2324 16.0005 20.1291 16.0005 19.9743V6.55494C16.0005 6.4001 15.8973 6.29688 15.7424 6.29688Z" fill="#0D8DD3"/>
<path d="M5.05859 9.96129L8.6715 6.34839C9.13601 5.88387 9.80698 5.88387 10.2715 6.34839C10.736 6.8129 10.736 7.48387 10.2715 7.94839L8.25859 9.96129L10.2715 11.9742C10.736 12.4387 10.736 13.1097 10.2715 13.5742C9.80698 14.0387 9.13601 14.0387 8.6715 13.5742L5.05859 9.96129Z" fill="white"/>
<path d="M26.9422 14.141L23.3292 17.7539C22.8647 18.2184 22.1938 18.2184 21.7292 17.7539C21.2647 17.2894 21.2647 16.6184 21.7292 16.1539L23.7422 14.141L21.7292 12.1281C21.2647 11.6636 21.2647 10.9926 21.7292 10.5281C22.1938 10.0636 22.8647 10.0636 23.3292 10.5281L26.9422 14.141Z" fill="white"/>
<path d="M25.3416 14.1966C25.3416 14.8159 24.8255 15.4869 24.2061 15.4869H19.0964C18.4771 15.4869 17.9609 14.8159 17.9609 14.1966C17.9609 13.5772 18.4771 12.9062 19.0964 12.9062H24.2577C24.8771 12.9062 25.3416 13.5772 25.3416 14.1966Z" fill="white"/>
<path d="M13.9881 9.80595C13.9881 10.4253 13.4719 11.0963 12.8526 11.0963H7.74291C7.12355 11.0963 6.60742 10.4253 6.60742 9.80595C6.60742 9.18659 7.12355 8.51562 7.74291 8.51562H12.8526C13.4719 8.51562 13.9881 9.18659 13.9881 9.80595Z" fill="white"/>
<path d="M15.7424 5.10938C15.5876 5.10938 15.4844 5.2126 15.4844 5.36744V18.7868C15.4844 18.9416 15.5876 19.0449 15.7424 19.0449C15.8973 19.0449 16.0005 18.9416 16.0005 18.7868V5.36744C16.0005 5.2126 15.8973 5.10938 15.7424 5.10938Z" fill="white"/>
</svg>
