<svg width="87" height="82" viewBox="0 0 87 82" fill="none" xmlns="http://www.w3.org/2000/svg">
<path d="M6.5 52C6.5 46.7471 7.53463 41.5457 9.54482 36.6927C11.555 31.8396 14.5014 27.4301 18.2157 23.7157C21.9301 20.0014 26.3396 17.055 31.1927 15.0448C36.0457 13.0346 41.2471 12 46.5 12C51.7529 12 56.9543 13.0346 61.8074 15.0448C66.6604 17.055 71.0699 20.0014 74.7843 23.7157C78.4986 27.4301 81.445 31.8397 83.4552 36.6927C85.4654 41.5457 86.5 46.7472 86.5 52L78.5 52C78.5 47.7977 77.6723 43.6366 76.0642 39.7541C74.456 35.8717 72.0989 32.3441 69.1274 29.3726C66.156 26.4011 62.6283 24.044 58.7459 22.4359C54.8635 20.8277 50.7023 20 46.5 20C42.2977 20 38.1366 20.8277 34.2541 22.4359C30.3717 24.044 26.8441 26.4011 23.8726 29.3726C20.9011 32.3441 18.544 35.8717 16.9359 39.7541C15.3277 43.6365 14.5 47.7977 14.5 52H6.5Z" fill="#FF6838"/>
<path d="M6.5 52C6.5 44.6133 8.54543 37.3708 12.4096 31.0753C16.2737 24.7799 21.8056 19.6774 28.3921 16.3334C34.9786 12.9895 42.3624 11.5347 49.7251 12.1302C57.0878 12.7258 64.1418 15.3485 70.1052 19.7076L65.3841 26.1661C60.6134 22.6788 54.9702 20.5806 49.0801 20.1042C43.1899 19.6277 37.2829 20.7916 32.0137 23.4668C26.7445 26.1419 22.3189 30.2239 19.2276 35.2603C16.1363 40.2966 14.5 46.0906 14.5 52H6.5Z" fill="#FFB45D"/>
<path d="M6.5 52C6.5 44.193 8.7846 36.5566 13.0722 30.0323C17.3597 23.508 23.4628 18.381 30.6289 15.2834L33.8032 22.6267C28.0702 25.1048 23.1878 29.2064 19.7577 34.4259C16.3277 39.6453 14.5 45.7544 14.5 52H6.5Z" fill="#58BD7D"/>
<g filter="url(#filter0_d_84_26174)">
<circle cx="12.75" cy="39.5" r="2.5" fill="#FCFCFD"/>
</g>
<defs>
<filter id="filter0_d_84_26174" x="0.25" y="37" width="25" height="45" filterUnits="userSpaceOnUse" color-interpolation-filters="sRGB">
<feFlood flood-opacity="0" result="BackgroundImageFix"/>
<feColorMatrix in="SourceAlpha" type="matrix" values="0 0 0 0 0 0 0 0 0 0 0 0 0 0 0 0 0 0 127 0" result="hardAlpha"/>
<feMorphology radius="20" operator="erode" in="SourceAlpha" result="effect1_dropShadow_84_26174"/>
<feOffset dy="30"/>
<feGaussianBlur stdDeviation="15"/>
<feColorMatrix type="matrix" values="0 0 0 0 0.0583333 0 0 0 0 0.0583333 0 0 0 0 0.0583333 0 0 0 0.2 0"/>
<feBlend mode="multiply" in2="BackgroundImageFix" result="effect1_dropShadow_84_26174"/>
<feBlend mode="normal" in="SourceGraphic" in2="effect1_dropShadow_84_26174" result="shape"/>
</filter>
</defs>
</svg>
