<svg width="12" height="11" viewBox="0 0 12 11" fill="none" xmlns="http://www.w3.org/2000/svg">
<path d="M7.78303 1.625H4.1925C2.63289 1.625 1.70312 2.45222 1.70312 3.83982V7.03054C1.70312 8.42195 2.63289 9.24917 4.1925 9.24917H7.77875C9.33836 9.24917 10.2681 8.42195 10.2681 7.03435V3.83982C10.2724 2.45222 9.34265 1.625 7.78303 1.625ZM7.86016 6.43966L6.90897 7.28595C6.6776 7.4918 6.37767 7.59091 6.07775 7.59091C5.77782 7.59091 5.47361 7.48799 5.24653 7.28595C4.78807 6.87806 4.78807 6.21094 5.24653 5.80305L5.85066 5.26554C5.97492 5.15499 6.18058 5.15499 6.30483 5.26554C6.42909 5.37609 6.42909 5.55907 6.30483 5.66962L5.7007 6.20713C5.49075 6.39392 5.49075 6.69507 5.7007 6.88187C5.91065 7.06866 6.24913 7.06866 6.45908 6.88187L7.41027 6.03558C7.67163 5.80305 7.81731 5.49046 7.81731 5.1588C7.81731 4.82715 7.67163 4.51837 7.41027 4.28202C6.88326 3.81314 5.96635 3.81314 5.43933 4.28202L4.39817 5.20836C3.95256 5.60482 3.95256 6.25287 4.39817 6.65314C4.52242 6.76369 4.52242 6.94667 4.39817 7.05722C4.27391 7.16777 4.06825 7.16777 3.94399 7.05722C3.2456 6.43585 3.2456 5.42565 3.94399 4.80428L4.98088 3.88176C5.3665 3.53867 5.87637 3.35188 6.42052 3.35188C6.96467 3.35188 7.47454 3.53867 7.86016 3.88176C8.24578 4.22484 8.45572 4.67848 8.45572 5.16262C8.45572 5.64675 8.24578 6.10039 7.86016 6.43966Z" fill="#9AA3AB"/>
</svg>
