<svg width="912" height="496" viewBox="0 0 912 496" fill="none" xmlns="http://www.w3.org/2000/svg">
<g filter="url(#filter0_d_1510_40)">
<g clip-path="url(#clip0_1510_40)">
<path d="M0 0H912V492C912 494.209 910.209 496 908 496H3.99998C1.79085 496 0 494.209 0 492V0Z" fill="#17181B"/>
<rect x="91.0996" width="0.5" height="495" fill="#23262F"/>
<rect x="182.2" width="0.5" height="495" fill="#23262F"/>
<rect x="273.3" width="0.5" height="495" fill="#23262F"/>
<rect x="364.4" width="0.5" height="495" fill="#23262F"/>
<rect x="455.5" width="0.5" height="495" fill="#23262F"/>
<rect x="546.6" width="0.5" height="495" fill="#23262F"/>
<rect x="637.7" width="0.5" height="495" fill="#23262F"/>
<rect x="728.8" width="0.5" height="495" fill="#23262F"/>
<rect x="819.9" width="0.5" height="495" fill="#23262F"/>
<rect width="912" height="0.5" transform="matrix(-1 0 0 1 912 49.5)" fill="#23262F"/>
<rect width="912" height="0.5" transform="matrix(-1 0 0 1 912 99)" fill="#23262F"/>
<rect width="912" height="0.5" transform="matrix(-1 0 0 1 912 148.5)" fill="#23262F"/>
<rect width="912" height="0.5" transform="matrix(-1 0 0 1 912 198)" fill="#23262F"/>
<rect width="912" height="0.5" transform="matrix(-1 0 0 1 912 247.5)" fill="#23262F"/>
<rect width="912" height="0.5" transform="matrix(-1 0 0 1 912 297)" fill="#353945"/>
<rect width="912" height="0.5" transform="matrix(-1 0 0 1 820 355)" fill="#23262F"/>
<rect width="912" height="0.5" transform="matrix(-1 0 0 1 820 387.5)" fill="#23262F"/>
<rect width="912" height="0.5" transform="matrix(-1 0 0 1 820 420)" fill="#23262F"/>
<rect width="912" height="0.5" transform="matrix(-1 0 0 1 820 452.5)" fill="#23262F"/>
</g>
</g>
<rect x="820" y="1" width="92" height="494" rx="12" fill="#17181B"/>
<path d="M850.011 51.45C850.651 50.8967 851.155 50.4433 851.521 50.09C851.895 49.73 852.205 49.3567 852.451 48.97C852.698 48.5833 852.821 48.1967 852.821 47.81C852.821 47.41 852.725 47.0967 852.531 46.87C852.345 46.6433 852.048 46.53 851.641 46.53C851.248 46.53 850.941 46.6567 850.721 46.91C850.508 47.1567 850.395 47.49 850.381 47.91H849.281C849.301 47.15 849.528 46.57 849.961 46.17C850.401 45.7633 850.958 45.56 851.631 45.56C852.358 45.56 852.925 45.76 853.331 46.16C853.745 46.56 853.951 47.0933 853.951 47.76C853.951 48.24 853.828 48.7033 853.581 49.15C853.341 49.59 853.051 49.9867 852.711 50.34C852.378 50.6867 851.951 51.09 851.431 51.55L850.981 51.95H854.151V52.9H849.291V52.07L850.011 51.45ZM855.153 49.26C855.153 48.1067 855.346 47.2067 855.733 46.56C856.126 45.9067 856.799 45.58 857.753 45.58C858.706 45.58 859.376 45.9067 859.763 46.56C860.156 47.2067 860.353 48.1067 860.353 49.26C860.353 50.4267 860.156 51.34 859.763 52C859.376 52.6533 858.706 52.98 857.753 52.98C856.799 52.98 856.126 52.6533 855.733 52C855.346 51.34 855.153 50.4267 855.153 49.26ZM859.233 49.26C859.233 48.72 859.196 48.2633 859.123 47.89C859.056 47.5167 858.916 47.2133 858.703 46.98C858.489 46.74 858.173 46.62 857.753 46.62C857.333 46.62 857.016 46.74 856.803 46.98C856.589 47.2133 856.446 47.5167 856.373 47.89C856.306 48.2633 856.273 48.72 856.273 49.26C856.273 49.82 856.306 50.29 856.373 50.67C856.439 51.05 856.579 51.3567 856.793 51.59C857.013 51.8233 857.333 51.94 857.753 51.94C858.173 51.94 858.489 51.8233 858.703 51.59C858.923 51.3567 859.066 51.05 859.133 50.67C859.199 50.29 859.233 49.82 859.233 49.26ZM864.157 49.26C864.157 48.1067 864.35 47.2067 864.737 46.56C865.13 45.9067 865.803 45.58 866.757 45.58C867.71 45.58 868.38 45.9067 868.767 46.56C869.16 47.2067 869.357 48.1067 869.357 49.26C869.357 50.4267 869.16 51.34 868.767 52C868.38 52.6533 867.71 52.98 866.757 52.98C865.803 52.98 865.13 52.6533 864.737 52C864.35 51.34 864.157 50.4267 864.157 49.26ZM868.237 49.26C868.237 48.72 868.2 48.2633 868.127 47.89C868.06 47.5167 867.92 47.2133 867.707 46.98C867.493 46.74 867.177 46.62 866.757 46.62C866.337 46.62 866.02 46.74 865.807 46.98C865.593 47.2133 865.45 47.5167 865.377 47.89C865.31 48.2633 865.277 48.72 865.277 49.26C865.277 49.82 865.31 50.29 865.377 50.67C865.443 51.05 865.583 51.3567 865.797 51.59C866.017 51.8233 866.337 51.94 866.757 51.94C867.177 51.94 867.493 51.8233 867.707 51.59C867.927 51.3567 868.07 51.05 868.137 50.67C868.203 50.29 868.237 49.82 868.237 49.26ZM870.563 49.26C870.563 48.1067 870.756 47.2067 871.143 46.56C871.536 45.9067 872.21 45.58 873.163 45.58C874.116 45.58 874.786 45.9067 875.173 46.56C875.566 47.2067 875.763 48.1067 875.763 49.26C875.763 50.4267 875.566 51.34 875.173 52C874.786 52.6533 874.116 52.98 873.163 52.98C872.21 52.98 871.536 52.6533 871.143 52C870.756 51.34 870.563 50.4267 870.563 49.26ZM874.643 49.26C874.643 48.72 874.606 48.2633 874.533 47.89C874.466 47.5167 874.326 47.2133 874.113 46.98C873.9 46.74 873.583 46.62 873.163 46.62C872.743 46.62 872.426 46.74 872.213 46.98C872 47.2133 871.856 47.5167 871.783 47.89C871.716 48.2633 871.683 48.72 871.683 49.26C871.683 49.82 871.716 50.29 871.783 50.67C871.85 51.05 871.99 51.3567 872.203 51.59C872.423 51.8233 872.743 51.94 873.163 51.94C873.583 51.94 873.9 51.8233 874.113 51.59C874.333 51.3567 874.476 51.05 874.543 50.67C874.61 50.29 874.643 49.82 874.643 49.26ZM876.969 49.26C876.969 48.1067 877.162 47.2067 877.549 46.56C877.942 45.9067 878.616 45.58 879.569 45.58C880.522 45.58 881.192 45.9067 881.579 46.56C881.972 47.2067 882.169 48.1067 882.169 49.26C882.169 50.4267 881.972 51.34 881.579 52C881.192 52.6533 880.522 52.98 879.569 52.98C878.616 52.98 877.942 52.6533 877.549 52C877.162 51.34 876.969 50.4267 876.969 49.26ZM881.049 49.26C881.049 48.72 881.012 48.2633 880.939 47.89C880.872 47.5167 880.732 47.2133 880.519 46.98C880.306 46.74 879.989 46.62 879.569 46.62C879.149 46.62 878.832 46.74 878.619 46.98C878.406 47.2133 878.262 47.5167 878.189 47.89C878.122 48.2633 878.089 48.72 878.089 49.26C878.089 49.82 878.122 50.29 878.189 50.67C878.256 51.05 878.396 51.3567 878.609 51.59C878.829 51.8233 879.149 51.94 879.569 51.94C879.989 51.94 880.306 51.8233 880.519 51.59C880.739 51.3567 880.882 51.05 880.949 50.67C881.016 50.29 881.049 49.82 881.049 49.26ZM883.985 53.07C883.779 53.07 883.605 53 883.465 52.86C883.325 52.72 883.255 52.5467 883.255 52.34C883.255 52.1333 883.325 51.96 883.465 51.82C883.605 51.68 883.779 51.61 883.985 51.61C884.185 51.61 884.355 51.68 884.495 51.82C884.635 51.96 884.705 52.1333 884.705 52.34C884.705 52.5467 884.635 52.72 884.495 52.86C884.355 53 884.185 53.07 883.985 53.07ZM885.788 49.26C885.788 48.1067 885.981 47.2067 886.368 46.56C886.761 45.9067 887.434 45.58 888.388 45.58C889.341 45.58 890.011 45.9067 890.398 46.56C890.791 47.2067 890.988 48.1067 890.988 49.26C890.988 50.4267 890.791 51.34 890.398 52C890.011 52.6533 889.341 52.98 888.388 52.98C887.434 52.98 886.761 52.6533 886.368 52C885.981 51.34 885.788 50.4267 885.788 49.26ZM889.868 49.26C889.868 48.72 889.831 48.2633 889.758 47.89C889.691 47.5167 889.551 47.2133 889.338 46.98C889.124 46.74 888.808 46.62 888.388 46.62C887.968 46.62 887.651 46.74 887.438 46.98C887.224 47.2133 887.081 47.5167 887.008 47.89C886.941 48.2633 886.908 48.72 886.908 49.26C886.908 49.82 886.941 50.29 887.008 50.67C887.074 51.05 887.214 51.3567 887.428 51.59C887.648 51.8233 887.968 51.94 888.388 51.94C888.808 51.94 889.124 51.8233 889.338 51.59C889.558 51.3567 889.701 51.05 889.768 50.67C889.834 50.29 889.868 49.82 889.868 49.26ZM892.194 49.26C892.194 48.1067 892.387 47.2067 892.774 46.56C893.167 45.9067 893.84 45.58 894.794 45.58C895.747 45.58 896.417 45.9067 896.804 46.56C897.197 47.2067 897.394 48.1067 897.394 49.26C897.394 50.4267 897.197 51.34 896.804 52C896.417 52.6533 895.747 52.98 894.794 52.98C893.84 52.98 893.167 52.6533 892.774 52C892.387 51.34 892.194 50.4267 892.194 49.26ZM896.274 49.26C896.274 48.72 896.237 48.2633 896.164 47.89C896.097 47.5167 895.957 47.2133 895.744 46.98C895.53 46.74 895.214 46.62 894.794 46.62C894.374 46.62 894.057 46.74 893.844 46.98C893.63 47.2133 893.487 47.5167 893.414 47.89C893.347 48.2633 893.314 48.72 893.314 49.26C893.314 49.82 893.347 50.29 893.414 50.67C893.48 51.05 893.62 51.3567 893.834 51.59C894.054 51.8233 894.374 51.94 894.794 51.94C895.214 51.94 895.53 51.8233 895.744 51.59C895.964 51.3567 896.107 51.05 896.174 50.67C896.24 50.29 896.274 49.82 896.274 49.26Z" fill="#B1B5C4"/>
<path d="M850.011 101.247C850.651 100.694 851.155 100.24 851.521 99.8869C851.895 99.5269 852.205 99.1535 852.451 98.7669C852.698 98.3802 852.821 97.9935 852.821 97.6069C852.821 97.2069 852.725 96.8935 852.531 96.6669C852.345 96.4402 852.048 96.3269 851.641 96.3269C851.248 96.3269 850.941 96.4535 850.721 96.7069C850.508 96.9535 850.395 97.2869 850.381 97.7069H849.281C849.301 96.9469 849.528 96.3669 849.961 95.9669C850.401 95.5602 850.958 95.3569 851.631 95.3569C852.358 95.3569 852.925 95.5569 853.331 95.9569C853.745 96.3569 853.951 96.8902 853.951 97.5569C853.951 98.0369 853.828 98.5002 853.581 98.9469C853.341 99.3869 853.051 99.7835 852.711 100.137C852.378 100.484 851.951 100.887 851.431 101.347L850.981 101.747H854.151V102.697H849.291V101.867L850.011 101.247ZM855.153 99.0569C855.153 97.9035 855.346 97.0035 855.733 96.3569C856.126 95.7035 856.799 95.3769 857.753 95.3769C858.706 95.3769 859.376 95.7035 859.763 96.3569C860.156 97.0035 860.353 97.9035 860.353 99.0569C860.353 100.224 860.156 101.137 859.763 101.797C859.376 102.45 858.706 102.777 857.753 102.777C856.799 102.777 856.126 102.45 855.733 101.797C855.346 101.137 855.153 100.224 855.153 99.0569ZM859.233 99.0569C859.233 98.5169 859.196 98.0602 859.123 97.6869C859.056 97.3135 858.916 97.0102 858.703 96.7769C858.489 96.5369 858.173 96.4169 857.753 96.4169C857.333 96.4169 857.016 96.5369 856.803 96.7769C856.589 97.0102 856.446 97.3135 856.373 97.6869C856.306 98.0602 856.273 98.5169 856.273 99.0569C856.273 99.6169 856.306 100.087 856.373 100.467C856.439 100.847 856.579 101.154 856.793 101.387C857.013 101.62 857.333 101.737 857.753 101.737C858.173 101.737 858.489 101.62 858.703 101.387C858.923 101.154 859.066 100.847 859.133 100.467C859.199 100.087 859.233 99.6169 859.233 99.0569ZM864.157 99.0569C864.157 97.9035 864.35 97.0035 864.737 96.3569C865.13 95.7035 865.803 95.3769 866.757 95.3769C867.71 95.3769 868.38 95.7035 868.767 96.3569C869.16 97.0035 869.357 97.9035 869.357 99.0569C869.357 100.224 869.16 101.137 868.767 101.797C868.38 102.45 867.71 102.777 866.757 102.777C865.803 102.777 865.13 102.45 864.737 101.797C864.35 101.137 864.157 100.224 864.157 99.0569ZM868.237 99.0569C868.237 98.5169 868.2 98.0602 868.127 97.6869C868.06 97.3135 867.92 97.0102 867.707 96.7769C867.493 96.5369 867.177 96.4169 866.757 96.4169C866.337 96.4169 866.02 96.5369 865.807 96.7769C865.593 97.0102 865.45 97.3135 865.377 97.6869C865.31 98.0602 865.277 98.5169 865.277 99.0569C865.277 99.6169 865.31 100.087 865.377 100.467C865.443 100.847 865.583 101.154 865.797 101.387C866.017 101.62 866.337 101.737 866.757 101.737C867.177 101.737 867.493 101.62 867.707 101.387C867.927 101.154 868.07 100.847 868.137 100.467C868.203 100.087 868.237 99.6169 868.237 99.0569ZM870.563 99.0569C870.563 97.9035 870.756 97.0035 871.143 96.3569C871.536 95.7035 872.21 95.3769 873.163 95.3769C874.116 95.3769 874.786 95.7035 875.173 96.3569C875.566 97.0035 875.763 97.9035 875.763 99.0569C875.763 100.224 875.566 101.137 875.173 101.797C874.786 102.45 874.116 102.777 873.163 102.777C872.21 102.777 871.536 102.45 871.143 101.797C870.756 101.137 870.563 100.224 870.563 99.0569ZM874.643 99.0569C874.643 98.5169 874.606 98.0602 874.533 97.6869C874.466 97.3135 874.326 97.0102 874.113 96.7769C873.9 96.5369 873.583 96.4169 873.163 96.4169C872.743 96.4169 872.426 96.5369 872.213 96.7769C872 97.0102 871.856 97.3135 871.783 97.6869C871.716 98.0602 871.683 98.5169 871.683 99.0569C871.683 99.6169 871.716 100.087 871.783 100.467C871.85 100.847 871.99 101.154 872.203 101.387C872.423 101.62 872.743 101.737 873.163 101.737C873.583 101.737 873.9 101.62 874.113 101.387C874.333 101.154 874.476 100.847 874.543 100.467C874.61 100.087 874.643 99.6169 874.643 99.0569ZM876.969 99.0569C876.969 97.9035 877.162 97.0035 877.549 96.3569C877.942 95.7035 878.616 95.3769 879.569 95.3769C880.522 95.3769 881.192 95.7035 881.579 96.3569C881.972 97.0035 882.169 97.9035 882.169 99.0569C882.169 100.224 881.972 101.137 881.579 101.797C881.192 102.45 880.522 102.777 879.569 102.777C878.616 102.777 877.942 102.45 877.549 101.797C877.162 101.137 876.969 100.224 876.969 99.0569ZM881.049 99.0569C881.049 98.5169 881.012 98.0602 880.939 97.6869C880.872 97.3135 880.732 97.0102 880.519 96.7769C880.306 96.5369 879.989 96.4169 879.569 96.4169C879.149 96.4169 878.832 96.5369 878.619 96.7769C878.406 97.0102 878.262 97.3135 878.189 97.6869C878.122 98.0602 878.089 98.5169 878.089 99.0569C878.089 99.6169 878.122 100.087 878.189 100.467C878.256 100.847 878.396 101.154 878.609 101.387C878.829 101.62 879.149 101.737 879.569 101.737C879.989 101.737 880.306 101.62 880.519 101.387C880.739 101.154 880.882 100.847 880.949 100.467C881.016 100.087 881.049 99.6169 881.049 99.0569ZM883.985 102.867C883.779 102.867 883.605 102.797 883.465 102.657C883.325 102.517 883.255 102.344 883.255 102.137C883.255 101.93 883.325 101.757 883.465 101.617C883.605 101.477 883.779 101.407 883.985 101.407C884.185 101.407 884.355 101.477 884.495 101.617C884.635 101.757 884.705 101.93 884.705 102.137C884.705 102.344 884.635 102.517 884.495 102.657C884.355 102.797 884.185 102.867 883.985 102.867ZM885.788 99.0569C885.788 97.9035 885.981 97.0035 886.368 96.3569C886.761 95.7035 887.434 95.3769 888.388 95.3769C889.341 95.3769 890.011 95.7035 890.398 96.3569C890.791 97.0035 890.988 97.9035 890.988 99.0569C890.988 100.224 890.791 101.137 890.398 101.797C890.011 102.45 889.341 102.777 888.388 102.777C887.434 102.777 886.761 102.45 886.368 101.797C885.981 101.137 885.788 100.224 885.788 99.0569ZM889.868 99.0569C889.868 98.5169 889.831 98.0602 889.758 97.6869C889.691 97.3135 889.551 97.0102 889.338 96.7769C889.124 96.5369 888.808 96.4169 888.388 96.4169C887.968 96.4169 887.651 96.5369 887.438 96.7769C887.224 97.0102 887.081 97.3135 887.008 97.6869C886.941 98.0602 886.908 98.5169 886.908 99.0569C886.908 99.6169 886.941 100.087 887.008 100.467C887.074 100.847 887.214 101.154 887.428 101.387C887.648 101.62 887.968 101.737 888.388 101.737C888.808 101.737 889.124 101.62 889.338 101.387C889.558 101.154 889.701 100.847 889.768 100.467C889.834 100.087 889.868 99.6169 889.868 99.0569ZM892.194 99.0569C892.194 97.9035 892.387 97.0035 892.774 96.3569C893.167 95.7035 893.84 95.3769 894.794 95.3769C895.747 95.3769 896.417 95.7035 896.804 96.3569C897.197 97.0035 897.394 97.9035 897.394 99.0569C897.394 100.224 897.197 101.137 896.804 101.797C896.417 102.45 895.747 102.777 894.794 102.777C893.84 102.777 893.167 102.45 892.774 101.797C892.387 101.137 892.194 100.224 892.194 99.0569ZM896.274 99.0569C896.274 98.5169 896.237 98.0602 896.164 97.6869C896.097 97.3135 895.957 97.0102 895.744 96.7769C895.53 96.5369 895.214 96.4169 894.794 96.4169C894.374 96.4169 894.057 96.5369 893.844 96.7769C893.63 97.0102 893.487 97.3135 893.414 97.6869C893.347 98.0602 893.314 98.5169 893.314 99.0569C893.314 99.6169 893.347 100.087 893.414 100.467C893.48 100.847 893.62 101.154 893.834 101.387C894.054 101.62 894.374 101.737 894.794 101.737C895.214 101.737 895.53 101.62 895.744 101.387C895.964 101.154 896.107 100.847 896.174 100.467C896.24 100.087 896.274 99.6169 896.274 99.0569Z" fill="#B1B5C4"/>
<path d="M850.011 151.052C850.651 150.498 851.155 150.045 851.521 149.692C851.895 149.332 852.205 148.958 852.451 148.572C852.698 148.185 852.821 147.798 852.821 147.412C852.821 147.012 852.725 146.698 852.531 146.472C852.345 146.245 852.048 146.132 851.641 146.132C851.248 146.132 850.941 146.258 850.721 146.512C850.508 146.758 850.395 147.092 850.381 147.512H849.281C849.301 146.752 849.528 146.172 849.961 145.772C850.401 145.365 850.958 145.162 851.631 145.162C852.358 145.162 852.925 145.362 853.331 145.762C853.745 146.162 853.951 146.695 853.951 147.362C853.951 147.842 853.828 148.305 853.581 148.752C853.341 149.192 853.051 149.588 852.711 149.942C852.378 150.288 851.951 150.692 851.431 151.152L850.981 151.552H854.151V152.502H849.291V151.672L850.011 151.052ZM855.153 148.862C855.153 147.708 855.346 146.808 855.733 146.162C856.126 145.508 856.799 145.182 857.753 145.182C858.706 145.182 859.376 145.508 859.763 146.162C860.156 146.808 860.353 147.708 860.353 148.862C860.353 150.028 860.156 150.942 859.763 151.602C859.376 152.255 858.706 152.582 857.753 152.582C856.799 152.582 856.126 152.255 855.733 151.602C855.346 150.942 855.153 150.028 855.153 148.862ZM859.233 148.862C859.233 148.322 859.196 147.865 859.123 147.492C859.056 147.118 858.916 146.815 858.703 146.582C858.489 146.342 858.173 146.222 857.753 146.222C857.333 146.222 857.016 146.342 856.803 146.582C856.589 146.815 856.446 147.118 856.373 147.492C856.306 147.865 856.273 148.322 856.273 148.862C856.273 149.422 856.306 149.892 856.373 150.272C856.439 150.652 856.579 150.958 856.793 151.192C857.013 151.425 857.333 151.542 857.753 151.542C858.173 151.542 858.489 151.425 858.703 151.192C858.923 150.958 859.066 150.652 859.133 150.272C859.199 149.892 859.233 149.422 859.233 148.862ZM864.157 148.862C864.157 147.708 864.35 146.808 864.737 146.162C865.13 145.508 865.803 145.182 866.757 145.182C867.71 145.182 868.38 145.508 868.767 146.162C869.16 146.808 869.357 147.708 869.357 148.862C869.357 150.028 869.16 150.942 868.767 151.602C868.38 152.255 867.71 152.582 866.757 152.582C865.803 152.582 865.13 152.255 864.737 151.602C864.35 150.942 864.157 150.028 864.157 148.862ZM868.237 148.862C868.237 148.322 868.2 147.865 868.127 147.492C868.06 147.118 867.92 146.815 867.707 146.582C867.493 146.342 867.177 146.222 866.757 146.222C866.337 146.222 866.02 146.342 865.807 146.582C865.593 146.815 865.45 147.118 865.377 147.492C865.31 147.865 865.277 148.322 865.277 148.862C865.277 149.422 865.31 149.892 865.377 150.272C865.443 150.652 865.583 150.958 865.797 151.192C866.017 151.425 866.337 151.542 866.757 151.542C867.177 151.542 867.493 151.425 867.707 151.192C867.927 150.958 868.07 150.652 868.137 150.272C868.203 149.892 868.237 149.422 868.237 148.862ZM870.563 148.862C870.563 147.708 870.756 146.808 871.143 146.162C871.536 145.508 872.21 145.182 873.163 145.182C874.116 145.182 874.786 145.508 875.173 146.162C875.566 146.808 875.763 147.708 875.763 148.862C875.763 150.028 875.566 150.942 875.173 151.602C874.786 152.255 874.116 152.582 873.163 152.582C872.21 152.582 871.536 152.255 871.143 151.602C870.756 150.942 870.563 150.028 870.563 148.862ZM874.643 148.862C874.643 148.322 874.606 147.865 874.533 147.492C874.466 147.118 874.326 146.815 874.113 146.582C873.9 146.342 873.583 146.222 873.163 146.222C872.743 146.222 872.426 146.342 872.213 146.582C872 146.815 871.856 147.118 871.783 147.492C871.716 147.865 871.683 148.322 871.683 148.862C871.683 149.422 871.716 149.892 871.783 150.272C871.85 150.652 871.99 150.958 872.203 151.192C872.423 151.425 872.743 151.542 873.163 151.542C873.583 151.542 873.9 151.425 874.113 151.192C874.333 150.958 874.476 150.652 874.543 150.272C874.61 149.892 874.643 149.422 874.643 148.862ZM876.969 148.862C876.969 147.708 877.162 146.808 877.549 146.162C877.942 145.508 878.616 145.182 879.569 145.182C880.522 145.182 881.192 145.508 881.579 146.162C881.972 146.808 882.169 147.708 882.169 148.862C882.169 150.028 881.972 150.942 881.579 151.602C881.192 152.255 880.522 152.582 879.569 152.582C878.616 152.582 877.942 152.255 877.549 151.602C877.162 150.942 876.969 150.028 876.969 148.862ZM881.049 148.862C881.049 148.322 881.012 147.865 880.939 147.492C880.872 147.118 880.732 146.815 880.519 146.582C880.306 146.342 879.989 146.222 879.569 146.222C879.149 146.222 878.832 146.342 878.619 146.582C878.406 146.815 878.262 147.118 878.189 147.492C878.122 147.865 878.089 148.322 878.089 148.862C878.089 149.422 878.122 149.892 878.189 150.272C878.256 150.652 878.396 150.958 878.609 151.192C878.829 151.425 879.149 151.542 879.569 151.542C879.989 151.542 880.306 151.425 880.519 151.192C880.739 150.958 880.882 150.652 880.949 150.272C881.016 149.892 881.049 149.422 881.049 148.862ZM883.985 152.672C883.779 152.672 883.605 152.602 883.465 152.462C883.325 152.322 883.255 152.148 883.255 151.942C883.255 151.735 883.325 151.562 883.465 151.422C883.605 151.282 883.779 151.212 883.985 151.212C884.185 151.212 884.355 151.282 884.495 151.422C884.635 151.562 884.705 151.735 884.705 151.942C884.705 152.148 884.635 152.322 884.495 152.462C884.355 152.602 884.185 152.672 883.985 152.672ZM885.788 148.862C885.788 147.708 885.981 146.808 886.368 146.162C886.761 145.508 887.434 145.182 888.388 145.182C889.341 145.182 890.011 145.508 890.398 146.162C890.791 146.808 890.988 147.708 890.988 148.862C890.988 150.028 890.791 150.942 890.398 151.602C890.011 152.255 889.341 152.582 888.388 152.582C887.434 152.582 886.761 152.255 886.368 151.602C885.981 150.942 885.788 150.028 885.788 148.862ZM889.868 148.862C889.868 148.322 889.831 147.865 889.758 147.492C889.691 147.118 889.551 146.815 889.338 146.582C889.124 146.342 888.808 146.222 888.388 146.222C887.968 146.222 887.651 146.342 887.438 146.582C887.224 146.815 887.081 147.118 887.008 147.492C886.941 147.865 886.908 148.322 886.908 148.862C886.908 149.422 886.941 149.892 887.008 150.272C887.074 150.652 887.214 150.958 887.428 151.192C887.648 151.425 887.968 151.542 888.388 151.542C888.808 151.542 889.124 151.425 889.338 151.192C889.558 150.958 889.701 150.652 889.768 150.272C889.834 149.892 889.868 149.422 889.868 148.862ZM892.194 148.862C892.194 147.708 892.387 146.808 892.774 146.162C893.167 145.508 893.84 145.182 894.794 145.182C895.747 145.182 896.417 145.508 896.804 146.162C897.197 146.808 897.394 147.708 897.394 148.862C897.394 150.028 897.197 150.942 896.804 151.602C896.417 152.255 895.747 152.582 894.794 152.582C893.84 152.582 893.167 152.255 892.774 151.602C892.387 150.942 892.194 150.028 892.194 148.862ZM896.274 148.862C896.274 148.322 896.237 147.865 896.164 147.492C896.097 147.118 895.957 146.815 895.744 146.582C895.53 146.342 895.214 146.222 894.794 146.222C894.374 146.222 894.057 146.342 893.844 146.582C893.63 146.815 893.487 147.118 893.414 147.492C893.347 147.865 893.314 148.322 893.314 148.862C893.314 149.422 893.347 149.892 893.414 150.272C893.48 150.652 893.62 150.958 893.834 151.192C894.054 151.425 894.374 151.542 894.794 151.542C895.214 151.542 895.53 151.425 895.744 151.192C895.964 150.958 896.107 150.652 896.174 150.272C896.24 149.892 896.274 149.422 896.274 148.862Z" fill="#B1B5C4"/>
<path d="M850.011 200.848C850.651 200.295 851.155 199.842 851.521 199.488C851.895 199.128 852.205 198.755 852.451 198.368C852.698 197.982 852.821 197.595 852.821 197.208C852.821 196.808 852.725 196.495 852.531 196.268C852.345 196.042 852.048 195.928 851.641 195.928C851.248 195.928 850.941 196.055 850.721 196.308C850.508 196.555 850.395 196.888 850.381 197.308H849.281C849.301 196.548 849.528 195.968 849.961 195.568C850.401 195.162 850.958 194.958 851.631 194.958C852.358 194.958 852.925 195.158 853.331 195.558C853.745 195.958 853.951 196.492 853.951 197.158C853.951 197.638 853.828 198.102 853.581 198.548C853.341 198.988 853.051 199.385 852.711 199.738C852.378 200.085 851.951 200.488 851.431 200.948L850.981 201.348H854.151V202.298H849.291V201.468L850.011 200.848ZM855.153 198.658C855.153 197.505 855.346 196.605 855.733 195.958C856.126 195.305 856.799 194.978 857.753 194.978C858.706 194.978 859.376 195.305 859.763 195.958C860.156 196.605 860.353 197.505 860.353 198.658C860.353 199.825 860.156 200.738 859.763 201.398C859.376 202.052 858.706 202.378 857.753 202.378C856.799 202.378 856.126 202.052 855.733 201.398C855.346 200.738 855.153 199.825 855.153 198.658ZM859.233 198.658C859.233 198.118 859.196 197.662 859.123 197.288C859.056 196.915 858.916 196.612 858.703 196.378C858.489 196.138 858.173 196.018 857.753 196.018C857.333 196.018 857.016 196.138 856.803 196.378C856.589 196.612 856.446 196.915 856.373 197.288C856.306 197.662 856.273 198.118 856.273 198.658C856.273 199.218 856.306 199.688 856.373 200.068C856.439 200.448 856.579 200.755 856.793 200.988C857.013 201.222 857.333 201.338 857.753 201.338C858.173 201.338 858.489 201.222 858.703 200.988C858.923 200.755 859.066 200.448 859.133 200.068C859.199 199.688 859.233 199.218 859.233 198.658ZM864.157 198.658C864.157 197.505 864.35 196.605 864.737 195.958C865.13 195.305 865.803 194.978 866.757 194.978C867.71 194.978 868.38 195.305 868.767 195.958C869.16 196.605 869.357 197.505 869.357 198.658C869.357 199.825 869.16 200.738 868.767 201.398C868.38 202.052 867.71 202.378 866.757 202.378C865.803 202.378 865.13 202.052 864.737 201.398C864.35 200.738 864.157 199.825 864.157 198.658ZM868.237 198.658C868.237 198.118 868.2 197.662 868.127 197.288C868.06 196.915 867.92 196.612 867.707 196.378C867.493 196.138 867.177 196.018 866.757 196.018C866.337 196.018 866.02 196.138 865.807 196.378C865.593 196.612 865.45 196.915 865.377 197.288C865.31 197.662 865.277 198.118 865.277 198.658C865.277 199.218 865.31 199.688 865.377 200.068C865.443 200.448 865.583 200.755 865.797 200.988C866.017 201.222 866.337 201.338 866.757 201.338C867.177 201.338 867.493 201.222 867.707 200.988C867.927 200.755 868.07 200.448 868.137 200.068C868.203 199.688 868.237 199.218 868.237 198.658ZM870.563 198.658C870.563 197.505 870.756 196.605 871.143 195.958C871.536 195.305 872.21 194.978 873.163 194.978C874.116 194.978 874.786 195.305 875.173 195.958C875.566 196.605 875.763 197.505 875.763 198.658C875.763 199.825 875.566 200.738 875.173 201.398C874.786 202.052 874.116 202.378 873.163 202.378C872.21 202.378 871.536 202.052 871.143 201.398C870.756 200.738 870.563 199.825 870.563 198.658ZM874.643 198.658C874.643 198.118 874.606 197.662 874.533 197.288C874.466 196.915 874.326 196.612 874.113 196.378C873.9 196.138 873.583 196.018 873.163 196.018C872.743 196.018 872.426 196.138 872.213 196.378C872 196.612 871.856 196.915 871.783 197.288C871.716 197.662 871.683 198.118 871.683 198.658C871.683 199.218 871.716 199.688 871.783 200.068C871.85 200.448 871.99 200.755 872.203 200.988C872.423 201.222 872.743 201.338 873.163 201.338C873.583 201.338 873.9 201.222 874.113 200.988C874.333 200.755 874.476 200.448 874.543 200.068C874.61 199.688 874.643 199.218 874.643 198.658ZM876.969 198.658C876.969 197.505 877.162 196.605 877.549 195.958C877.942 195.305 878.616 194.978 879.569 194.978C880.522 194.978 881.192 195.305 881.579 195.958C881.972 196.605 882.169 197.505 882.169 198.658C882.169 199.825 881.972 200.738 881.579 201.398C881.192 202.052 880.522 202.378 879.569 202.378C878.616 202.378 877.942 202.052 877.549 201.398C877.162 200.738 876.969 199.825 876.969 198.658ZM881.049 198.658C881.049 198.118 881.012 197.662 880.939 197.288C880.872 196.915 880.732 196.612 880.519 196.378C880.306 196.138 879.989 196.018 879.569 196.018C879.149 196.018 878.832 196.138 878.619 196.378C878.406 196.612 878.262 196.915 878.189 197.288C878.122 197.662 878.089 198.118 878.089 198.658C878.089 199.218 878.122 199.688 878.189 200.068C878.256 200.448 878.396 200.755 878.609 200.988C878.829 201.222 879.149 201.338 879.569 201.338C879.989 201.338 880.306 201.222 880.519 200.988C880.739 200.755 880.882 200.448 880.949 200.068C881.016 199.688 881.049 199.218 881.049 198.658ZM883.985 202.468C883.779 202.468 883.605 202.398 883.465 202.258C883.325 202.118 883.255 201.945 883.255 201.738C883.255 201.532 883.325 201.358 883.465 201.218C883.605 201.078 883.779 201.008 883.985 201.008C884.185 201.008 884.355 201.078 884.495 201.218C884.635 201.358 884.705 201.532 884.705 201.738C884.705 201.945 884.635 202.118 884.495 202.258C884.355 202.398 884.185 202.468 883.985 202.468ZM885.788 198.658C885.788 197.505 885.981 196.605 886.368 195.958C886.761 195.305 887.434 194.978 888.388 194.978C889.341 194.978 890.011 195.305 890.398 195.958C890.791 196.605 890.988 197.505 890.988 198.658C890.988 199.825 890.791 200.738 890.398 201.398C890.011 202.052 889.341 202.378 888.388 202.378C887.434 202.378 886.761 202.052 886.368 201.398C885.981 200.738 885.788 199.825 885.788 198.658ZM889.868 198.658C889.868 198.118 889.831 197.662 889.758 197.288C889.691 196.915 889.551 196.612 889.338 196.378C889.124 196.138 888.808 196.018 888.388 196.018C887.968 196.018 887.651 196.138 887.438 196.378C887.224 196.612 887.081 196.915 887.008 197.288C886.941 197.662 886.908 198.118 886.908 198.658C886.908 199.218 886.941 199.688 887.008 200.068C887.074 200.448 887.214 200.755 887.428 200.988C887.648 201.222 887.968 201.338 888.388 201.338C888.808 201.338 889.124 201.222 889.338 200.988C889.558 200.755 889.701 200.448 889.768 200.068C889.834 199.688 889.868 199.218 889.868 198.658ZM892.194 198.658C892.194 197.505 892.387 196.605 892.774 195.958C893.167 195.305 893.84 194.978 894.794 194.978C895.747 194.978 896.417 195.305 896.804 195.958C897.197 196.605 897.394 197.505 897.394 198.658C897.394 199.825 897.197 200.738 896.804 201.398C896.417 202.052 895.747 202.378 894.794 202.378C893.84 202.378 893.167 202.052 892.774 201.398C892.387 200.738 892.194 199.825 892.194 198.658ZM896.274 198.658C896.274 198.118 896.237 197.662 896.164 197.288C896.097 196.915 895.957 196.612 895.744 196.378C895.53 196.138 895.214 196.018 894.794 196.018C894.374 196.018 894.057 196.138 893.844 196.378C893.63 196.612 893.487 196.915 893.414 197.288C893.347 197.662 893.314 198.118 893.314 198.658C893.314 199.218 893.347 199.688 893.414 200.068C893.48 200.448 893.62 200.755 893.834 200.988C894.054 201.222 894.374 201.338 894.794 201.338C895.214 201.338 895.53 201.222 895.744 200.988C895.964 200.755 896.107 200.448 896.174 200.068C896.24 199.688 896.274 199.218 896.274 198.658Z" fill="#B1B5C4"/>
<rect x="836" y="240.203" width="67" height="16" rx="2" fill="#00C076"/>
<path d="M849.418 250.653C850.058 250.1 850.561 249.646 850.928 249.293C851.301 248.933 851.611 248.56 851.858 248.173C852.104 247.786 852.228 247.4 852.228 247.013C852.228 246.613 852.131 246.3 851.938 246.073C851.751 245.846 851.454 245.733 851.048 245.733C850.654 245.733 850.348 245.86 850.128 246.113C849.914 246.36 849.801 246.693 849.788 247.113H848.688C848.708 246.353 848.934 245.773 849.368 245.373C849.808 244.966 850.364 244.763 851.038 244.763C851.764 244.763 852.331 244.963 852.738 245.363C853.151 245.763 853.358 246.296 853.358 246.963C853.358 247.443 853.234 247.906 852.988 248.353C852.748 248.793 852.458 249.19 852.118 249.543C851.784 249.89 851.358 250.293 850.838 250.753L850.388 251.153H853.558V252.103H848.698V251.273L849.418 250.653ZM854.559 248.463C854.559 247.31 854.752 246.41 855.139 245.763C855.532 245.11 856.206 244.783 857.159 244.783C858.112 244.783 858.782 245.11 859.169 245.763C859.562 246.41 859.759 247.31 859.759 248.463C859.759 249.63 859.562 250.543 859.169 251.203C858.782 251.856 858.112 252.183 857.159 252.183C856.206 252.183 855.532 251.856 855.139 251.203C854.752 250.543 854.559 249.63 854.559 248.463ZM858.639 248.463C858.639 247.923 858.602 247.466 858.529 247.093C858.462 246.72 858.322 246.416 858.109 246.183C857.896 245.943 857.579 245.823 857.159 245.823C856.739 245.823 856.422 245.943 856.209 246.183C855.996 246.416 855.852 246.72 855.779 247.093C855.712 247.466 855.679 247.923 855.679 248.463C855.679 249.023 855.712 249.493 855.779 249.873C855.846 250.253 855.986 250.56 856.199 250.793C856.419 251.026 856.739 251.143 857.159 251.143C857.579 251.143 857.896 251.026 858.109 250.793C858.329 250.56 858.472 250.253 858.539 249.873C858.606 249.493 858.639 249.023 858.639 248.463ZM863.563 248.463C863.563 247.31 863.756 246.41 864.143 245.763C864.536 245.11 865.21 244.783 866.163 244.783C867.116 244.783 867.786 245.11 868.173 245.763C868.566 246.41 868.763 247.31 868.763 248.463C868.763 249.63 868.566 250.543 868.173 251.203C867.786 251.856 867.116 252.183 866.163 252.183C865.21 252.183 864.536 251.856 864.143 251.203C863.756 250.543 863.563 249.63 863.563 248.463ZM867.643 248.463C867.643 247.923 867.606 247.466 867.533 247.093C867.466 246.72 867.326 246.416 867.113 246.183C866.9 245.943 866.583 245.823 866.163 245.823C865.743 245.823 865.426 245.943 865.213 246.183C865 246.416 864.856 246.72 864.783 247.093C864.716 247.466 864.683 247.923 864.683 248.463C864.683 249.023 864.716 249.493 864.783 249.873C864.85 250.253 864.99 250.56 865.203 250.793C865.423 251.026 865.743 251.143 866.163 251.143C866.583 251.143 866.9 251.026 867.113 250.793C867.333 250.56 867.476 250.253 867.543 249.873C867.61 249.493 867.643 249.023 867.643 248.463ZM869.969 248.463C869.969 247.31 870.162 246.41 870.549 245.763C870.942 245.11 871.616 244.783 872.569 244.783C873.522 244.783 874.192 245.11 874.579 245.763C874.972 246.41 875.169 247.31 875.169 248.463C875.169 249.63 874.972 250.543 874.579 251.203C874.192 251.856 873.522 252.183 872.569 252.183C871.616 252.183 870.942 251.856 870.549 251.203C870.162 250.543 869.969 249.63 869.969 248.463ZM874.049 248.463C874.049 247.923 874.012 247.466 873.939 247.093C873.872 246.72 873.732 246.416 873.519 246.183C873.306 245.943 872.989 245.823 872.569 245.823C872.149 245.823 871.832 245.943 871.619 246.183C871.406 246.416 871.262 246.72 871.189 247.093C871.122 247.466 871.089 247.923 871.089 248.463C871.089 249.023 871.122 249.493 871.189 249.873C871.256 250.253 871.396 250.56 871.609 250.793C871.829 251.026 872.149 251.143 872.569 251.143C872.989 251.143 873.306 251.026 873.519 250.793C873.739 250.56 873.882 250.253 873.949 249.873C874.016 249.493 874.049 249.023 874.049 248.463ZM876.985 252.273C876.779 252.273 876.605 252.203 876.465 252.063C876.325 251.923 876.255 251.75 876.255 251.543C876.255 251.336 876.325 251.163 876.465 251.023C876.605 250.883 876.779 250.813 876.985 250.813C877.185 250.813 877.355 250.883 877.495 251.023C877.635 251.163 877.705 251.336 877.705 251.543C877.705 251.75 877.635 251.923 877.495 252.063C877.355 252.203 877.185 252.273 876.985 252.273ZM878.788 248.463C878.788 247.31 878.981 246.41 879.368 245.763C879.761 245.11 880.434 244.783 881.388 244.783C882.341 244.783 883.011 245.11 883.398 245.763C883.791 246.41 883.988 247.31 883.988 248.463C883.988 249.63 883.791 250.543 883.398 251.203C883.011 251.856 882.341 252.183 881.388 252.183C880.434 252.183 879.761 251.856 879.368 251.203C878.981 250.543 878.788 249.63 878.788 248.463ZM882.868 248.463C882.868 247.923 882.831 247.466 882.758 247.093C882.691 246.72 882.551 246.416 882.338 246.183C882.124 245.943 881.808 245.823 881.388 245.823C880.968 245.823 880.651 245.943 880.438 246.183C880.224 246.416 880.081 246.72 880.008 247.093C879.941 247.466 879.908 247.923 879.908 248.463C879.908 249.023 879.941 249.493 880.008 249.873C880.074 250.253 880.214 250.56 880.428 250.793C880.648 251.026 880.968 251.143 881.388 251.143C881.808 251.143 882.124 251.026 882.338 250.793C882.558 250.56 882.701 250.253 882.768 249.873C882.834 249.493 882.868 249.023 882.868 248.463ZM885.194 248.463C885.194 247.31 885.387 246.41 885.774 245.763C886.167 245.11 886.84 244.783 887.794 244.783C888.747 244.783 889.417 245.11 889.804 245.763C890.197 246.41 890.394 247.31 890.394 248.463C890.394 249.63 890.197 250.543 889.804 251.203C889.417 251.856 888.747 252.183 887.794 252.183C886.84 252.183 886.167 251.856 885.774 251.203C885.387 250.543 885.194 249.63 885.194 248.463ZM889.274 248.463C889.274 247.923 889.237 247.466 889.164 247.093C889.097 246.72 888.957 246.416 888.744 246.183C888.53 245.943 888.214 245.823 887.794 245.823C887.374 245.823 887.057 245.943 886.844 246.183C886.63 246.416 886.487 246.72 886.414 247.093C886.347 247.466 886.314 247.923 886.314 248.463C886.314 249.023 886.347 249.493 886.414 249.873C886.48 250.253 886.62 250.56 886.834 250.793C887.054 251.026 887.374 251.143 887.794 251.143C888.214 251.143 888.53 251.026 888.744 250.793C888.964 250.56 889.107 250.253 889.174 249.873C889.24 249.493 889.274 249.023 889.274 248.463Z" fill="#FCFCFD"/>
<path d="M833.425 245.464C831.747 246.66 831.747 249.152 833.425 250.349L838.008 253.618C839.994 255.034 842.75 253.614 842.75 251.175L842.75 244.637C842.75 242.198 839.994 240.779 838.008 242.195L833.425 245.464Z" fill="#00C076"/>
<path d="M850.011 300.45C850.651 299.897 851.155 299.443 851.521 299.09C851.895 298.73 852.205 298.357 852.451 297.97C852.698 297.583 852.821 297.197 852.821 296.81C852.821 296.41 852.725 296.097 852.531 295.87C852.345 295.643 852.048 295.53 851.641 295.53C851.248 295.53 850.941 295.657 850.721 295.91C850.508 296.157 850.395 296.49 850.381 296.91H849.281C849.301 296.15 849.528 295.57 849.961 295.17C850.401 294.763 850.958 294.56 851.631 294.56C852.358 294.56 852.925 294.76 853.331 295.16C853.745 295.56 853.951 296.093 853.951 296.76C853.951 297.24 853.828 297.703 853.581 298.15C853.341 298.59 853.051 298.987 852.711 299.34C852.378 299.687 851.951 300.09 851.431 300.55L850.981 300.95H854.151V301.9H849.291V301.07L850.011 300.45ZM855.153 298.26C855.153 297.107 855.346 296.207 855.733 295.56C856.126 294.907 856.799 294.58 857.753 294.58C858.706 294.58 859.376 294.907 859.763 295.56C860.156 296.207 860.353 297.107 860.353 298.26C860.353 299.427 860.156 300.34 859.763 301C859.376 301.653 858.706 301.98 857.753 301.98C856.799 301.98 856.126 301.653 855.733 301C855.346 300.34 855.153 299.427 855.153 298.26ZM859.233 298.26C859.233 297.72 859.196 297.263 859.123 296.89C859.056 296.517 858.916 296.213 858.703 295.98C858.489 295.74 858.173 295.62 857.753 295.62C857.333 295.62 857.016 295.74 856.803 295.98C856.589 296.213 856.446 296.517 856.373 296.89C856.306 297.263 856.273 297.72 856.273 298.26C856.273 298.82 856.306 299.29 856.373 299.67C856.439 300.05 856.579 300.357 856.793 300.59C857.013 300.823 857.333 300.94 857.753 300.94C858.173 300.94 858.489 300.823 858.703 300.59C858.923 300.357 859.066 300.05 859.133 299.67C859.199 299.29 859.233 298.82 859.233 298.26ZM864.157 298.26C864.157 297.107 864.35 296.207 864.737 295.56C865.13 294.907 865.803 294.58 866.757 294.58C867.71 294.58 868.38 294.907 868.767 295.56C869.16 296.207 869.357 297.107 869.357 298.26C869.357 299.427 869.16 300.34 868.767 301C868.38 301.653 867.71 301.98 866.757 301.98C865.803 301.98 865.13 301.653 864.737 301C864.35 300.34 864.157 299.427 864.157 298.26ZM868.237 298.26C868.237 297.72 868.2 297.263 868.127 296.89C868.06 296.517 867.92 296.213 867.707 295.98C867.493 295.74 867.177 295.62 866.757 295.62C866.337 295.62 866.02 295.74 865.807 295.98C865.593 296.213 865.45 296.517 865.377 296.89C865.31 297.263 865.277 297.72 865.277 298.26C865.277 298.82 865.31 299.29 865.377 299.67C865.443 300.05 865.583 300.357 865.797 300.59C866.017 300.823 866.337 300.94 866.757 300.94C867.177 300.94 867.493 300.823 867.707 300.59C867.927 300.357 868.07 300.05 868.137 299.67C868.203 299.29 868.237 298.82 868.237 298.26ZM870.563 298.26C870.563 297.107 870.756 296.207 871.143 295.56C871.536 294.907 872.21 294.58 873.163 294.58C874.116 294.58 874.786 294.907 875.173 295.56C875.566 296.207 875.763 297.107 875.763 298.26C875.763 299.427 875.566 300.34 875.173 301C874.786 301.653 874.116 301.98 873.163 301.98C872.21 301.98 871.536 301.653 871.143 301C870.756 300.34 870.563 299.427 870.563 298.26ZM874.643 298.26C874.643 297.72 874.606 297.263 874.533 296.89C874.466 296.517 874.326 296.213 874.113 295.98C873.9 295.74 873.583 295.62 873.163 295.62C872.743 295.62 872.426 295.74 872.213 295.98C872 296.213 871.856 296.517 871.783 296.89C871.716 297.263 871.683 297.72 871.683 298.26C871.683 298.82 871.716 299.29 871.783 299.67C871.85 300.05 871.99 300.357 872.203 300.59C872.423 300.823 872.743 300.94 873.163 300.94C873.583 300.94 873.9 300.823 874.113 300.59C874.333 300.357 874.476 300.05 874.543 299.67C874.61 299.29 874.643 298.82 874.643 298.26ZM876.969 298.26C876.969 297.107 877.162 296.207 877.549 295.56C877.942 294.907 878.616 294.58 879.569 294.58C880.522 294.58 881.192 294.907 881.579 295.56C881.972 296.207 882.169 297.107 882.169 298.26C882.169 299.427 881.972 300.34 881.579 301C881.192 301.653 880.522 301.98 879.569 301.98C878.616 301.98 877.942 301.653 877.549 301C877.162 300.34 876.969 299.427 876.969 298.26ZM881.049 298.26C881.049 297.72 881.012 297.263 880.939 296.89C880.872 296.517 880.732 296.213 880.519 295.98C880.306 295.74 879.989 295.62 879.569 295.62C879.149 295.62 878.832 295.74 878.619 295.98C878.406 296.213 878.262 296.517 878.189 296.89C878.122 297.263 878.089 297.72 878.089 298.26C878.089 298.82 878.122 299.29 878.189 299.67C878.256 300.05 878.396 300.357 878.609 300.59C878.829 300.823 879.149 300.94 879.569 300.94C879.989 300.94 880.306 300.823 880.519 300.59C880.739 300.357 880.882 300.05 880.949 299.67C881.016 299.29 881.049 298.82 881.049 298.26ZM883.985 302.07C883.779 302.07 883.605 302 883.465 301.86C883.325 301.72 883.255 301.547 883.255 301.34C883.255 301.133 883.325 300.96 883.465 300.82C883.605 300.68 883.779 300.61 883.985 300.61C884.185 300.61 884.355 300.68 884.495 300.82C884.635 300.96 884.705 301.133 884.705 301.34C884.705 301.547 884.635 301.72 884.495 301.86C884.355 302 884.185 302.07 883.985 302.07ZM885.788 298.26C885.788 297.107 885.981 296.207 886.368 295.56C886.761 294.907 887.434 294.58 888.388 294.58C889.341 294.58 890.011 294.907 890.398 295.56C890.791 296.207 890.988 297.107 890.988 298.26C890.988 299.427 890.791 300.34 890.398 301C890.011 301.653 889.341 301.98 888.388 301.98C887.434 301.98 886.761 301.653 886.368 301C885.981 300.34 885.788 299.427 885.788 298.26ZM889.868 298.26C889.868 297.72 889.831 297.263 889.758 296.89C889.691 296.517 889.551 296.213 889.338 295.98C889.124 295.74 888.808 295.62 888.388 295.62C887.968 295.62 887.651 295.74 887.438 295.98C887.224 296.213 887.081 296.517 887.008 296.89C886.941 297.263 886.908 297.72 886.908 298.26C886.908 298.82 886.941 299.29 887.008 299.67C887.074 300.05 887.214 300.357 887.428 300.59C887.648 300.823 887.968 300.94 888.388 300.94C888.808 300.94 889.124 300.823 889.338 300.59C889.558 300.357 889.701 300.05 889.768 299.67C889.834 299.29 889.868 298.82 889.868 298.26ZM892.194 298.26C892.194 297.107 892.387 296.207 892.774 295.56C893.167 294.907 893.84 294.58 894.794 294.58C895.747 294.58 896.417 294.907 896.804 295.56C897.197 296.207 897.394 297.107 897.394 298.26C897.394 299.427 897.197 300.34 896.804 301C896.417 301.653 895.747 301.98 894.794 301.98C893.84 301.98 893.167 301.653 892.774 301C892.387 300.34 892.194 299.427 892.194 298.26ZM896.274 298.26C896.274 297.72 896.237 297.263 896.164 296.89C896.097 296.517 895.957 296.213 895.744 295.98C895.53 295.74 895.214 295.62 894.794 295.62C894.374 295.62 894.057 295.74 893.844 295.98C893.63 296.213 893.487 296.517 893.414 296.89C893.347 297.263 893.314 297.72 893.314 298.26C893.314 298.82 893.347 299.29 893.414 299.67C893.48 300.05 893.62 300.357 893.834 300.59C894.054 300.823 894.374 300.94 894.794 300.94C895.214 300.94 895.53 300.823 895.744 300.59C895.964 300.357 896.107 300.05 896.174 299.67C896.24 299.29 896.274 298.82 896.274 298.26Z" fill="#B1B5C4"/>
<path d="M846.45 351.75V350.71H848.53V358H847.38V351.75H846.45ZM850.726 356.45C851.366 355.897 851.869 355.443 852.236 355.09C852.609 354.73 852.919 354.357 853.166 353.97C853.413 353.583 853.536 353.197 853.536 352.81C853.536 352.41 853.439 352.097 853.246 351.87C853.059 351.643 852.763 351.53 852.356 351.53C851.963 351.53 851.656 351.657 851.436 351.91C851.223 352.157 851.109 352.49 851.096 352.91H849.996C850.016 352.15 850.243 351.57 850.676 351.17C851.116 350.763 851.673 350.56 852.346 350.56C853.073 350.56 853.639 350.76 854.046 351.16C854.459 351.56 854.666 352.093 854.666 352.76C854.666 353.24 854.543 353.703 854.296 354.15C854.056 354.59 853.766 354.987 853.426 355.34C853.093 355.687 852.666 356.09 852.146 356.55L851.696 356.95H854.866V357.9H850.006V357.07L850.726 356.45ZM855.868 354.26C855.868 353.107 856.061 352.207 856.448 351.56C856.841 350.907 857.514 350.58 858.468 350.58C859.421 350.58 860.091 350.907 860.478 351.56C860.871 352.207 861.068 353.107 861.068 354.26C861.068 355.427 860.871 356.34 860.478 357C860.091 357.653 859.421 357.98 858.468 357.98C857.514 357.98 856.841 357.653 856.448 357C856.061 356.34 855.868 355.427 855.868 354.26ZM859.948 354.26C859.948 353.72 859.911 353.263 859.838 352.89C859.771 352.517 859.631 352.213 859.418 351.98C859.204 351.74 858.888 351.62 858.468 351.62C858.048 351.62 857.731 351.74 857.518 351.98C857.304 352.213 857.161 352.517 857.088 352.89C857.021 353.263 856.988 353.72 856.988 354.26C856.988 354.82 857.021 355.29 857.088 355.67C857.154 356.05 857.294 356.357 857.508 356.59C857.728 356.823 858.048 356.94 858.468 356.94C858.888 356.94 859.204 356.823 859.418 356.59C859.638 356.357 859.781 356.05 859.848 355.67C859.914 355.29 859.948 354.82 859.948 354.26Z" fill="#777E91"/>
<path d="M847.83 387.526C847.137 387.179 846.79 386.633 846.79 385.886C846.79 385.526 846.88 385.196 847.06 384.896C847.24 384.596 847.51 384.359 847.87 384.186C848.23 384.006 848.67 383.916 849.19 383.916C849.703 383.916 850.14 384.006 850.5 384.186C850.867 384.359 851.14 384.596 851.32 384.896C851.5 385.196 851.59 385.526 851.59 385.886C851.59 386.259 851.493 386.589 851.3 386.876C851.113 387.156 850.863 387.373 850.55 387.526C850.93 387.666 851.23 387.896 851.45 388.216C851.67 388.529 851.78 388.899 851.78 389.326C851.78 389.759 851.67 390.143 851.45 390.476C851.23 390.809 850.923 391.066 850.53 391.246C850.137 391.426 849.69 391.516 849.19 391.516C848.69 391.516 848.243 391.426 847.85 391.246C847.463 391.066 847.16 390.809 846.94 390.476C846.72 390.143 846.61 389.759 846.61 389.326C846.61 388.893 846.72 388.519 846.94 388.206C847.16 387.893 847.457 387.666 847.83 387.526ZM850.5 386.026C850.5 385.653 850.383 385.366 850.15 385.166C849.917 384.966 849.597 384.866 849.19 384.866C848.79 384.866 848.473 384.966 848.24 385.166C848.007 385.366 847.89 385.656 847.89 386.036C847.89 386.369 848.01 386.643 848.25 386.856C848.497 387.063 848.81 387.166 849.19 387.166C849.57 387.166 849.883 387.059 850.13 386.846C850.377 386.633 850.5 386.359 850.5 386.026ZM849.19 388.026C848.75 388.026 848.39 388.136 848.11 388.356C847.837 388.569 847.7 388.879 847.7 389.286C847.7 389.666 847.833 389.976 848.1 390.216C848.367 390.449 848.73 390.566 849.19 390.566C849.643 390.566 850 390.446 850.26 390.206C850.527 389.966 850.66 389.659 850.66 389.286C850.66 388.886 850.523 388.576 850.25 388.356C849.983 388.136 849.63 388.026 849.19 388.026ZM852.977 387.596C852.977 386.443 853.17 385.543 853.557 384.896C853.95 384.243 854.624 383.916 855.577 383.916C856.53 383.916 857.2 384.243 857.587 384.896C857.98 385.543 858.177 386.443 858.177 387.596C858.177 388.763 857.98 389.676 857.587 390.336C857.2 390.989 856.53 391.316 855.577 391.316C854.624 391.316 853.95 390.989 853.557 390.336C853.17 389.676 852.977 388.763 852.977 387.596ZM857.057 387.596C857.057 387.056 857.02 386.599 856.947 386.226C856.88 385.853 856.74 385.549 856.527 385.316C856.314 385.076 855.997 384.956 855.577 384.956C855.157 384.956 854.84 385.076 854.627 385.316C854.414 385.549 854.27 385.853 854.197 386.226C854.13 386.599 854.097 387.056 854.097 387.596C854.097 388.156 854.13 388.626 854.197 389.006C854.264 389.386 854.404 389.693 854.617 389.926C854.837 390.159 855.157 390.276 855.577 390.276C855.997 390.276 856.314 390.159 856.527 389.926C856.747 389.693 856.89 389.386 856.957 389.006C857.024 388.626 857.057 388.156 857.057 387.596Z" fill="#777E91"/>
<path d="M846.46 423.144V422.284L849.82 417.464H851.2V422.154H852.13V423.144H851.2V424.664H850.08V423.144H846.46ZM850.13 418.624L847.77 422.154H850.13V418.624ZM853.075 420.924C853.075 419.771 853.268 418.871 853.655 418.224C854.048 417.571 854.721 417.244 855.675 417.244C856.628 417.244 857.298 417.571 857.685 418.224C858.078 418.871 858.275 419.771 858.275 420.924C858.275 422.091 858.078 423.004 857.685 423.664C857.298 424.317 856.628 424.644 855.675 424.644C854.721 424.644 854.048 424.317 853.655 423.664C853.268 423.004 853.075 422.091 853.075 420.924ZM857.155 420.924C857.155 420.384 857.118 419.927 857.045 419.554C856.978 419.181 856.838 418.877 856.625 418.644C856.411 418.404 856.095 418.284 855.675 418.284C855.255 418.284 854.938 418.404 854.725 418.644C854.511 418.877 854.368 419.181 854.295 419.554C854.228 419.927 854.195 420.384 854.195 420.924C854.195 421.484 854.228 421.954 854.295 422.334C854.361 422.714 854.501 423.021 854.715 423.254C854.935 423.487 855.255 423.604 855.675 423.604C856.095 423.604 856.411 423.487 856.625 423.254C856.845 423.021 856.988 422.714 857.055 422.334C857.121 421.954 857.155 421.484 857.155 420.924Z" fill="#777E91"/>
<path d="M846.6 454.26C846.6 453.107 846.793 452.207 847.18 451.56C847.573 450.907 848.247 450.58 849.2 450.58C850.153 450.58 850.823 450.907 851.21 451.56C851.603 452.207 851.8 453.107 851.8 454.26C851.8 455.427 851.603 456.34 851.21 457C850.823 457.653 850.153 457.98 849.2 457.98C848.247 457.98 847.573 457.653 847.18 457C846.793 456.34 846.6 455.427 846.6 454.26ZM850.68 454.26C850.68 453.72 850.643 453.263 850.57 452.89C850.503 452.517 850.363 452.213 850.15 451.98C849.937 451.74 849.62 451.62 849.2 451.62C848.78 451.62 848.463 451.74 848.25 451.98C848.037 452.213 847.893 452.517 847.82 452.89C847.753 453.263 847.72 453.72 847.72 454.26C847.72 454.82 847.753 455.29 847.82 455.67C847.887 456.05 848.027 456.357 848.24 456.59C848.46 456.823 848.78 456.94 849.2 456.94C849.62 456.94 849.937 456.823 850.15 456.59C850.37 456.357 850.513 456.05 850.58 455.67C850.647 455.29 850.68 454.82 850.68 454.26Z" fill="#777E91"/>
<g opacity="0.5">
<rect width="8" height="0.5" transform="matrix(-1 0 0 1 828 49.4766)" fill="#777E91"/>
<rect width="8" height="0.5" transform="matrix(-1 0 0 1 828 98.9766)" fill="#777E91"/>
<rect width="8" height="0.5" transform="matrix(-1 0 0 1 828 148.477)" fill="#777E91"/>
<rect width="8" height="0.5" transform="matrix(-1 0 0 1 828 197.977)" fill="#777E91"/>
<rect width="8" height="0.5" transform="matrix(-1 0 0 1 828 247.477)" fill="#777E91"/>
<rect width="8" height="0.5" transform="matrix(-1 0 0 1 828 296.977)" fill="#777E91"/>
<rect width="8" height="0.5" transform="matrix(-1 0 0 1 828 355)" fill="#777E91"/>
<rect width="8" height="0.5" transform="matrix(-1 0 0 1 828 387.5)" fill="#777E91"/>
<rect width="8" height="0.5" transform="matrix(-1 0 0 1 828 420)" fill="#777E91"/>
<rect width="8" height="0.5" transform="matrix(-1 0 0 1 828 452.5)" fill="#777E91"/>
<rect x="820" y="1" width="0.5" height="495" fill="#777E91"/>
</g>
<g clip-path="url(#clip1_1510_40)">
<rect width="0.75" height="64" transform="translate(20 200)" fill="#FF6838"/>
<rect width="5" height="12" transform="translate(18 252)" fill="#FF6838"/>
<rect width="0.75" height="64" transform="translate(414 200)" fill="#FF6838"/>
<rect width="5" height="12" transform="translate(412 252)" fill="#FF6838"/>
<rect width="0.75" height="64" transform="matrix(-1 0 0 1 408 155)" fill="#FF6838"/>
<rect width="5" height="12" transform="matrix(-1 0 0 1 410 207)" fill="#FF6838"/>
<rect width="0.75" height="64" transform="matrix(-1 0 0 1 802 155)" fill="#FF6838"/>
<rect width="5" height="12" transform="matrix(-1 0 0 1 804 207)" fill="#FF6838"/>
<rect width="0.75" height="46" transform="translate(27 206)" fill="#00C076"/>
<rect width="5" height="30" transform="translate(25 214)" fill="#00C076"/>
<rect width="0.75" height="46" transform="translate(421 206)" fill="#00C076"/>
<rect width="5" height="30" transform="translate(419 214)" fill="#00C076"/>
<rect width="0.75" height="46" transform="matrix(-1 0 0 1 401 206)" fill="#00C076"/>
<rect width="5" height="30" transform="matrix(-1 0 0 1 403 214)" fill="#00C076"/>
<rect width="0.75" height="46" transform="matrix(-1 0 0 1 795 206)" fill="#00C076"/>
<rect width="5" height="30" transform="matrix(-1 0 0 1 797 214)" fill="#00C076"/>
<rect width="0.75" height="24" transform="translate(210 232)" fill="#00C076"/>
<rect width="5" height="8" transform="translate(208 240)" fill="#00C076"/>
<rect width="0.75" height="24" transform="translate(604 232)" fill="#00C076"/>
<rect width="5" height="8" transform="translate(602 240)" fill="#00C076"/>
<rect width="0.75" height="24" transform="matrix(-1 0 0 1 218 232)" fill="#00C076"/>
<rect width="5" height="8" transform="matrix(-1 0 0 1 220 240)" fill="#00C076"/>
<rect width="0.75" height="24" transform="matrix(-1 0 0 1 612 232)" fill="#00C076"/>
<rect width="5" height="8" transform="matrix(-1 0 0 1 614 240)" fill="#00C076"/>
<rect width="0.75" height="24" transform="translate(182 223)" fill="#FF6838"/>
<rect width="5" height="8" transform="translate(180 223)" fill="#FF6838"/>
<rect width="0.75" height="24" transform="translate(576 223)" fill="#FF6838"/>
<rect width="5" height="8" transform="translate(574 223)" fill="#FF6838"/>
<rect width="0.75" height="24" transform="matrix(-1 0 0 1 246 223)" fill="#FF6838"/>
<rect width="5" height="8" transform="matrix(-1 0 0 1 248 223)" fill="#FF6838"/>
<rect width="0.75" height="24" transform="matrix(-1 0 0 1 640 223)" fill="#FF6838"/>
<rect width="5" height="8" transform="matrix(-1 0 0 1 642 223)" fill="#FF6838"/>
<rect width="0.75" height="24" transform="translate(189 223)" fill="#FF6838"/>
<rect width="5" height="8" transform="translate(187 239)" fill="#FF6838"/>
<rect width="0.75" height="24" transform="translate(808 195)" fill="#FF6838"/>
<rect width="5" height="8" transform="translate(806 211)" fill="#FF6838"/>
<rect width="0.75" height="24" transform="translate(583 223)" fill="#FF6838"/>
<rect width="5" height="8" transform="translate(581 239)" fill="#FF6838"/>
<rect width="0.75" height="24" transform="matrix(-1 0 0 1 239 223)" fill="#FF6838"/>
<rect width="5" height="8" transform="matrix(-1 0 0 1 241 239)" fill="#FF6838"/>
<rect width="0.75" height="24" transform="matrix(-1 0 0 1 633 223)" fill="#FF6838"/>
<rect width="5" height="8" transform="matrix(-1 0 0 1 635 239)" fill="#FF6838"/>
<rect width="0.75" height="24" transform="translate(196 228)" fill="#FF6838"/>
<rect width="5" height="8" transform="translate(194 244)" fill="#FF6838"/>
<rect width="0.75" height="24" transform="translate(815 200)" fill="#FF6838"/>
<rect width="5" height="8" transform="translate(813 216)" fill="#FF6838"/>
<rect width="0.75" height="24" transform="translate(590 228)" fill="#FF6838"/>
<rect width="5" height="8" transform="translate(588 244)" fill="#FF6838"/>
<rect width="0.75" height="24" transform="matrix(-1 0 0 1 232 228)" fill="#FF6838"/>
<rect width="5" height="8" transform="matrix(-1 0 0 1 234 244)" fill="#FF6838"/>
<rect width="0.75" height="24" transform="matrix(-1 0 0 1 626 228)" fill="#FF6838"/>
<rect width="5" height="8" transform="matrix(-1 0 0 1 628 244)" fill="#FF6838"/>
<rect width="0.75" height="24" transform="translate(175 219)" fill="#FF6838"/>
<rect width="5" height="8" transform="translate(173 227)" fill="#FF6838"/>
<rect width="0.75" height="24" transform="translate(569 219)" fill="#FF6838"/>
<rect width="5" height="8" transform="translate(567 227)" fill="#FF6838"/>
<rect width="0.75" height="24" transform="matrix(-1 0 0 1 253 219)" fill="#FF6838"/>
<rect width="5" height="8" transform="matrix(-1 0 0 1 255 227)" fill="#FF6838"/>
<rect width="0.75" height="24" transform="matrix(-1 0 0 1 647 219)" fill="#FF6838"/>
<rect width="5" height="8" transform="matrix(-1 0 0 1 649 227)" fill="#FF6838"/>
<rect width="0.75" height="24" transform="translate(203 232)" fill="#FF6838"/>
<rect width="5" height="8" transform="translate(201 240)" fill="#FF6838"/>
<rect width="0.75" height="24" transform="translate(597 232)" fill="#FF6838"/>
<rect width="5" height="8" transform="translate(595 240)" fill="#FF6838"/>
<rect width="0.75" height="24" transform="matrix(-1 0 0 1 225 232)" fill="#FF6838"/>
<rect width="5" height="8" transform="matrix(-1 0 0 1 227 240)" fill="#FF6838"/>
<rect width="0.75" height="24" transform="matrix(-1 0 0 1 619 232)" fill="#FF6838"/>
<rect width="5" height="8" transform="matrix(-1 0 0 1 621 240)" fill="#FF6838"/>
<rect width="0.75" height="64" transform="translate(168 195)" fill="#FF6838"/>
<rect width="5" height="12" transform="translate(166 221)" fill="#FF6838"/>
<rect width="0.75" height="64" transform="translate(562 195)" fill="#FF6838"/>
<rect width="5" height="12" transform="translate(560 221)" fill="#FF6838"/>
<rect width="0.75" height="64" transform="matrix(-1 0 0 1 260 195)" fill="#FF6838"/>
<rect width="5" height="12" transform="matrix(-1 0 0 1 262 221)" fill="#FF6838"/>
<rect width="0.75" height="64" transform="matrix(-1 0 0 1 654 195)" fill="#FF6838"/>
<rect width="5" height="12" transform="matrix(-1 0 0 1 656 221)" fill="#FF6838"/>
<rect width="0.75" height="64" transform="translate(161 197)" fill="#FF6838"/>
<rect width="5" height="12" transform="translate(159 249)" fill="#FF6838"/>
<rect width="0.75" height="64" transform="translate(555 197)" fill="#FF6838"/>
<rect width="5" height="12" transform="translate(553 249)" fill="#FF6838"/>
<rect width="0.75" height="64" transform="matrix(-1 0 0 1 267 197)" fill="#FF6838"/>
<rect width="5" height="12" transform="matrix(-1 0 0 1 269 249)" fill="#FF6838"/>
<rect width="0.75" height="64" transform="matrix(-1 0 0 1 661 197)" fill="#FF6838"/>
<rect width="5" height="12" transform="matrix(-1 0 0 1 663 249)" fill="#FF6838"/>
<rect width="0.75" height="64" transform="translate(154 220)" fill="#00C076"/>
<rect width="5" height="12" transform="translate(152 220)" fill="#00C076"/>
<rect width="0.75" height="64" transform="translate(548 220)" fill="#00C076"/>
<rect width="5" height="12" transform="translate(546 220)" fill="#00C076"/>
<rect width="0.75" height="64" transform="matrix(-1 0 0 1 274 220)" fill="#00C076"/>
<rect width="5" height="12" transform="matrix(-1 0 0 1 276 220)" fill="#00C076"/>
<rect width="0.75" height="64" transform="matrix(-1 0 0 1 668 220)" fill="#00C076"/>
<rect width="5" height="12" transform="matrix(-1 0 0 1 670 220)" fill="#00C076"/>
<rect width="0.75" height="112" transform="translate(147 123)" fill="#00C076"/>
<rect width="5" height="64" transform="translate(145 171)" fill="#00C076"/>
<rect width="0.75" height="112" transform="translate(541 123)" fill="#00C076"/>
<rect width="5" height="64" transform="translate(539 171)" fill="#00C076"/>
<rect width="0.75" height="112" transform="matrix(-1 0 0 1 281 123)" fill="#00C076"/>
<rect width="5" height="64" transform="matrix(-1 0 0 1 283 171)" fill="#00C076"/>
<rect width="0.75" height="112" transform="matrix(-1 0 0 1 675 123)" fill="#00C076"/>
<rect width="5" height="64" transform="matrix(-1 0 0 1 677 171)" fill="#00C076"/>
<rect width="0.75" height="112" transform="translate(140 155)" fill="#00C076"/>
<rect width="5" height="64" transform="translate(138 155)" fill="#00C076"/>
<rect width="0.75" height="112" transform="translate(534 155)" fill="#00C076"/>
<rect width="5" height="64" transform="translate(532 155)" fill="#00C076"/>
<rect width="0.75" height="112" transform="matrix(-1 0 0 1 288 155)" fill="#00C076"/>
<rect width="5" height="64" transform="matrix(-1 0 0 1 290 155)" fill="#00C076"/>
<rect width="0.75" height="112" transform="matrix(-1 0 0 1 682 155)" fill="#00C076"/>
<rect width="5" height="64" transform="matrix(-1 0 0 1 684 155)" fill="#00C076"/>
<rect width="0.75" height="64" transform="translate(133 174)" fill="#FF6838"/>
<rect width="5" height="12" transform="translate(131 226)" fill="#FF6838"/>
<rect width="0.75" height="64" transform="translate(527 174)" fill="#FF6838"/>
<rect width="5" height="12" transform="translate(525 226)" fill="#FF6838"/>
<rect width="0.75" height="64" transform="matrix(-1 0 0 1 295 174)" fill="#FF6838"/>
<rect width="5" height="12" transform="matrix(-1 0 0 1 297 226)" fill="#FF6838"/>
<rect width="0.75" height="64" transform="matrix(-1 0 0 1 689 174)" fill="#FF6838"/>
<rect width="5" height="12" transform="matrix(-1 0 0 1 691 226)" fill="#FF6838"/>
<rect width="0.75" height="24" transform="translate(126 199)" fill="#00C076"/>
<rect width="5" height="8" transform="translate(124 207)" fill="#00C076"/>
<rect width="0.75" height="24" transform="translate(520 199)" fill="#00C076"/>
<rect width="5" height="8" transform="translate(518 207)" fill="#00C076"/>
<rect width="0.75" height="24" transform="matrix(-1 0 0 1 302 199)" fill="#00C076"/>
<rect width="5" height="8" transform="matrix(-1 0 0 1 304 207)" fill="#00C076"/>
<rect width="0.75" height="24" transform="matrix(-1 0 0 1 696 199)" fill="#00C076"/>
<rect width="5" height="8" transform="matrix(-1 0 0 1 698 207)" fill="#00C076"/>
<rect width="0.75" height="64" transform="translate(90 142)" fill="#FF6838"/>
<rect width="5" height="40" transform="translate(88 154)" fill="#FF6838"/>
<rect width="0.75" height="64" transform="translate(484 142)" fill="#FF6838"/>
<rect width="5" height="40" transform="translate(482 154)" fill="#FF6838"/>
<rect width="0.75" height="64" transform="matrix(-1 0 0 1 338 192)" fill="#FF6838"/>
<rect width="5" height="40" transform="matrix(-1 0 0 1 340 204)" fill="#FF6838"/>
<rect width="0.75" height="64" transform="matrix(-1 0 0 1 732 192)" fill="#FF6838"/>
<rect width="5" height="40" transform="matrix(-1 0 0 1 734 204)" fill="#FF6838"/>
<rect width="0.75" height="24" transform="translate(97 195)" fill="#00C076"/>
<rect width="5" height="8" transform="translate(95 195)" fill="#00C076"/>
<rect width="0.75" height="24" transform="translate(491 195)" fill="#00C076"/>
<rect width="5" height="8" transform="translate(489 195)" fill="#00C076"/>
<rect width="0.75" height="24" transform="matrix(-1 0 0 1 331 211)" fill="#00C076"/>
<rect width="5" height="8" transform="matrix(-1 0 0 1 333 211)" fill="#00C076"/>
<rect width="0.75" height="24" transform="matrix(-1 0 0 1 725 211)" fill="#00C076"/>
<rect width="5" height="8" transform="matrix(-1 0 0 1 727 211)" fill="#00C076"/>
<rect width="0.75" height="24" transform="translate(104 183)" fill="#FF6838"/>
<rect width="5" height="8" transform="translate(102 191)" fill="#FF6838"/>
<rect width="0.75" height="24" transform="translate(498 183)" fill="#FF6838"/>
<rect width="5" height="8" transform="translate(496 191)" fill="#FF6838"/>
<rect width="0.75" height="24" transform="matrix(-1 0 0 1 324 199)" fill="#FF6838"/>
<rect width="5" height="8" transform="matrix(-1 0 0 1 326 207)" fill="#FF6838"/>
<rect width="0.75" height="24" transform="matrix(-1 0 0 1 718 199)" fill="#FF6838"/>
<rect width="5" height="8" transform="matrix(-1 0 0 1 720 207)" fill="#FF6838"/>
<rect width="0.75" height="24" transform="translate(55 228)" fill="#FF6838"/>
<rect width="5" height="8" transform="translate(53 228)" fill="#FF6838"/>
<rect width="0.75" height="24" transform="translate(449 228)" fill="#FF6838"/>
<rect width="5" height="8" transform="translate(447 228)" fill="#FF6838"/>
<rect width="0.75" height="24" transform="matrix(-1 0 0 1 373 228)" fill="#FF6838"/>
<rect width="5" height="8" transform="matrix(-1 0 0 1 375 228)" fill="#FF6838"/>
<rect width="0.75" height="24" transform="matrix(-1 0 0 1 767 228)" fill="#FF6838"/>
<rect width="5" height="8" transform="matrix(-1 0 0 1 769 228)" fill="#FF6838"/>
<rect width="0.75" height="24" transform="translate(62 230)" fill="#FF6838"/>
<rect width="5" height="8" transform="translate(60 230)" fill="#FF6838"/>
<rect width="0.75" height="24" transform="translate(456 230)" fill="#FF6838"/>
<rect width="5" height="8" transform="translate(454 230)" fill="#FF6838"/>
<rect width="0.75" height="24" transform="matrix(-1 0 0 1 366 230)" fill="#FF6838"/>
<rect width="5" height="8" transform="matrix(-1 0 0 1 368 230)" fill="#FF6838"/>
<rect width="0.75" height="24" transform="matrix(-1 0 0 1 760 230)" fill="#FF6838"/>
<rect width="5" height="8" transform="matrix(-1 0 0 1 762 230)" fill="#FF6838"/>
<rect width="0.75" height="24" transform="translate(112 196)" fill="#FF6838"/>
<rect width="5" height="8" transform="translate(110 196)" fill="#FF6838"/>
<rect width="0.75" height="24" transform="translate(506 196)" fill="#FF6838"/>
<rect width="5" height="8" transform="translate(504 196)" fill="#FF6838"/>
<rect width="0.75" height="24" transform="matrix(-1 0 0 1 316 212)" fill="#FF6838"/>
<rect width="5" height="8" transform="matrix(-1 0 0 1 318 212)" fill="#FF6838"/>
<rect width="0.75" height="24" transform="matrix(-1 0 0 1 710 212)" fill="#FF6838"/>
<rect width="5" height="8" transform="matrix(-1 0 0 1 712 212)" fill="#FF6838"/>
<rect width="0.75" height="24" transform="translate(69 203)" fill="#00C076"/>
<rect width="5" height="8" transform="translate(67 211)" fill="#00C076"/>
<rect width="0.75" height="24" transform="translate(463 203)" fill="#00C076"/>
<rect width="5" height="8" transform="translate(461 211)" fill="#00C076"/>
<rect width="0.75" height="24" transform="matrix(-1 0 0 1 359 203)" fill="#00C076"/>
<rect width="5" height="8" transform="matrix(-1 0 0 1 361 211)" fill="#00C076"/>
<rect width="0.75" height="24" transform="matrix(-1 0 0 1 753 203)" fill="#00C076"/>
<rect width="5" height="8" transform="matrix(-1 0 0 1 755 211)" fill="#00C076"/>
<rect width="0.75" height="64" transform="translate(76 151)" fill="#00C076"/>
<rect width="5" height="40" transform="translate(74 151)" fill="#00C076"/>
<rect width="0.75" height="64" transform="translate(470 151)" fill="#00C076"/>
<rect width="5" height="40" transform="translate(468 151)" fill="#00C076"/>
<rect width="0.75" height="64" transform="matrix(-1 0 0 1 352 201)" fill="#00C076"/>
<rect width="5" height="40" transform="matrix(-1 0 0 1 354 201)" fill="#00C076"/>
<rect width="0.75" height="64" transform="matrix(-1 0 0 1 746 201)" fill="#00C076"/>
<rect width="5" height="40" transform="matrix(-1 0 0 1 748 201)" fill="#00C076"/>
<rect width="0.75" height="64" transform="translate(83 139)" fill="#00C076"/>
<rect width="5" height="40" transform="translate(81 151)" fill="#00C076"/>
<rect width="0.75" height="64" transform="translate(477 139)" fill="#00C076"/>
<rect width="5" height="40" transform="translate(475 151)" fill="#00C076"/>
<rect width="0.75" height="64" transform="matrix(-1 0 0 1 345 189)" fill="#00C076"/>
<rect width="5" height="40" transform="matrix(-1 0 0 1 347 201)" fill="#00C076"/>
<rect width="0.75" height="64" transform="matrix(-1 0 0 1 739 189)" fill="#00C076"/>
<rect width="5" height="40" transform="matrix(-1 0 0 1 741 201)" fill="#00C076"/>
<rect width="0.75" height="35" transform="translate(48 220)" fill="#00C076"/>
<rect width="5" height="19" transform="translate(46 228)" fill="#00C076"/>
<rect width="0.75" height="35" transform="translate(442 220)" fill="#00C076"/>
<rect width="5" height="19" transform="translate(440 228)" fill="#00C076"/>
<rect width="0.75" height="35" transform="matrix(-1 0 0 1 380 220)" fill="#00C076"/>
<rect width="5" height="19" transform="matrix(-1 0 0 1 382 228)" fill="#00C076"/>
<rect width="0.75" height="35" transform="matrix(-1 0 0 1 774 220)" fill="#00C076"/>
<rect width="5" height="19" transform="matrix(-1 0 0 1 776 228)" fill="#00C076"/>
<rect width="0.75" height="24" transform="translate(41 228)" fill="#FF6838"/>
<rect width="5" height="8" transform="translate(39 236)" fill="#FF6838"/>
<rect width="0.75" height="24" transform="translate(435 228)" fill="#FF6838"/>
<rect width="5" height="8" transform="translate(433 236)" fill="#FF6838"/>
<rect width="0.75" height="24" transform="matrix(-1 0 0 1 387 228)" fill="#FF6838"/>
<rect width="5" height="8" transform="matrix(-1 0 0 1 389 236)" fill="#FF6838"/>
<rect width="0.75" height="24" transform="matrix(-1 0 0 1 781 228)" fill="#FF6838"/>
<rect width="5" height="8" transform="matrix(-1 0 0 1 783 236)" fill="#FF6838"/>
<rect width="0.75" height="24" transform="translate(119 207)" fill="#FF6838"/>
<rect width="5" height="8" transform="translate(117 215)" fill="#FF6838"/>
<rect width="0.75" height="24" transform="translate(513 207)" fill="#FF6838"/>
<rect width="5" height="8" transform="translate(511 215)" fill="#FF6838"/>
<rect width="0.75" height="24" transform="matrix(-1 0 0 1 309 223)" fill="#FF6838"/>
<rect width="5" height="8" transform="matrix(-1 0 0 1 311 231)" fill="#FF6838"/>
<rect width="0.75" height="24" transform="matrix(-1 0 0 1 703 223)" fill="#FF6838"/>
<rect width="5" height="8" transform="matrix(-1 0 0 1 705 231)" fill="#FF6838"/>
<rect width="0.75" height="24" transform="translate(34 211)" fill="#FF6838"/>
<rect width="5" height="8" transform="translate(32 219)" fill="#FF6838"/>
<rect width="0.75" height="24" transform="translate(428 211)" fill="#FF6838"/>
<rect width="5" height="8" transform="translate(426 219)" fill="#FF6838"/>
<rect width="0.75" height="24" transform="matrix(-1 0 0 1 394 211)" fill="#FF6838"/>
<rect width="5" height="8" transform="matrix(-1 0 0 1 396 219)" fill="#FF6838"/>
<rect width="0.75" height="24" transform="matrix(-1 0 0 1 788 211)" fill="#FF6838"/>
<rect width="5" height="8" transform="matrix(-1 0 0 1 790 219)" fill="#FF6838"/>
</g>
<defs>
<filter id="filter0_d_1510_40" x="-16" y="0" width="944" height="576" filterUnits="userSpaceOnUse" color-interpolation-filters="sRGB">
<feFlood flood-opacity="0" result="BackgroundImageFix"/>
<feColorMatrix in="SourceAlpha" type="matrix" values="0 0 0 0 0 0 0 0 0 0 0 0 0 0 0 0 0 0 127 0" result="hardAlpha"/>
<feMorphology radius="48" operator="erode" in="SourceAlpha" result="effect1_dropShadow_1510_40"/>
<feOffset dy="64"/>
<feGaussianBlur stdDeviation="32"/>
<feColorMatrix type="matrix" values="0 0 0 0 0.0583333 0 0 0 0 0.0583333 0 0 0 0 0.0583333 0 0 0 0.1 0"/>
<feBlend mode="multiply" in2="BackgroundImageFix" result="effect1_dropShadow_1510_40"/>
<feBlend mode="normal" in="SourceGraphic" in2="effect1_dropShadow_1510_40" result="shape"/>
</filter>
<clipPath id="clip0_1510_40">
<path d="M0 0H912V492C912 494.209 910.209 496 908 496H3.99998C1.79085 496 0 494.209 0 492V0Z" fill="white"/>
</clipPath>
<clipPath id="clip1_1510_40">
<rect width="802" height="189" fill="white" transform="translate(18 95)"/>
</clipPath>
</defs>
</svg>
