<svg width="239" height="54" viewBox="0 0 239 54" fill="none" xmlns="http://www.w3.org/2000/svg">
<path d="M1 53.0031H8.78841C9.16089 53.0031 9.52171 52.8732 9.80864 52.6356L24.0314 40.8627C24.1066 40.8003 24.1761 40.7312 24.2388 40.6562L35.065 27.7037C35.5297 27.1478 36.31 26.9735 36.967 27.2789L60.1126 38.0363C60.6292 38.2765 61.2346 38.2237 61.702 37.8979L71.3038 31.2039C71.7931 30.8627 72.4316 30.8221 72.9602 31.0985L82.7175 36.2004C83.0626 36.3808 83.4616 36.4292 83.8398 36.3365L97.2812 33.0421L109.136 29.2367C109.256 29.1982 109.371 29.1456 109.479 29.0801L123.306 20.6651C123.812 20.3569 124.447 20.354 124.957 20.6576L136.754 27.6908C136.975 27.8223 137.224 27.8988 137.48 27.9138L150.977 28.7049H167.669C168.071 28.7049 168.458 28.5538 168.754 28.2815L182.357 15.7451C182.421 15.6863 182.49 15.6328 182.562 15.5851L204.344 1.25026C205.175 0.703758 206.297 1.03885 206.692 1.95115L214.502 19.9919C214.722 20.4994 215.188 20.8575 215.735 20.9388L227.518 22.6913C228.239 22.7985 228.796 23.3792 228.874 24.1037L230.876 42.8259C230.963 43.6391 231.65 44.2558 232.467 44.2558H238" stroke="#58BD7D" stroke-width="1.6" stroke-linecap="round" stroke-linejoin="round"/>
<path d="M8.79044 52.7622H1L236.396 53.3988C237.281 53.4012 238 52.6841 238 51.7988V45.6547C238 44.7711 237.284 44.0547 236.4 44.0547H232.467C231.649 44.0547 230.963 43.4385 230.876 42.6257L228.874 24.0004C228.797 23.2758 228.239 22.6954 227.518 22.5886L215.734 20.8441C215.188 20.7631 214.722 20.406 214.501 19.8994L206.692 1.94321C206.297 1.03382 205.178 0.699517 204.348 1.24294L182.562 15.5149C182.49 15.5624 182.421 15.6157 182.357 15.6743L168.753 28.1539C168.458 28.4246 168.072 28.5748 167.671 28.5748H150.977L137.478 27.7872C137.223 27.7723 136.975 27.6964 136.755 27.5659L124.954 20.5626C124.446 20.2612 123.813 20.2641 123.308 20.5701L109.478 28.9485C109.371 29.0136 109.256 29.0658 109.136 29.1041L97.2812 32.8923L83.8373 36.1722C83.4606 36.2641 83.0633 36.2161 82.7194 36.0371L72.9571 30.9559C72.43 30.6816 71.7943 30.722 71.3062 31.0607L61.6997 37.7275C61.2334 38.051 60.6307 38.1034 60.1156 37.8651L36.9633 27.1536C36.3079 26.8504 35.5306 27.0238 35.0662 27.5768L24.239 40.4713C24.1762 40.5462 24.1066 40.6151 24.0311 40.6773L9.8079 52.397C9.52139 52.6331 9.16169 52.7622 8.79044 52.7622Z" fill="url(#paint0_linear_301_77298)"/>
<defs>
<linearGradient id="paint0_linear_301_77298" x1="120.894" y1="-95.9898" x2="120.189" y2="52.7654" gradientUnits="userSpaceOnUse">
<stop stop-color="#45B36B"/>
<stop offset="1" stop-color="#45B36B" stop-opacity="0"/>
</linearGradient>
</defs>
</svg>
