<svg width="16" height="16" viewBox="0 0 16 16" fill="none" xmlns="http://www.w3.org/2000/svg">
<path fill-rule="evenodd" clip-rule="evenodd" d="M12.667 3.33333H3.33366C2.59728 3.33333 2.00033 3.93029 2.00033 4.66667V11.3333C2.00033 12.0697 2.59728 12.6667 3.33366 12.6667H12.667C13.4034 12.6667 14.0003 12.0697 14.0003 11.3333V4.66667C14.0003 3.93029 13.4034 3.33333 12.667 3.33333ZM3.33366 2C1.8609 2 0.666992 3.19391 0.666992 4.66667V11.3333C0.666992 12.8061 1.8609 14 3.33366 14H12.667C14.1398 14 15.3337 12.8061 15.3337 11.3333V4.66667C15.3337 3.19391 14.1398 2 12.667 2H3.33366Z" fill="#E6E8EC"/>
<path fill-rule="evenodd" clip-rule="evenodd" d="M8.66699 7.9974C8.66699 6.15645 10.1594 4.66406 12.0003 4.66406H14.667C15.0352 4.66406 15.3337 4.96254 15.3337 5.33073C15.3337 5.69892 15.0352 5.9974 14.667 5.9974H12.0003C10.8958 5.9974 10.0003 6.89283 10.0003 7.9974C10.0003 9.10196 10.8958 9.9974 12.0003 9.9974H14.667C15.0352 9.9974 15.3337 10.2959 15.3337 10.6641C15.3337 11.0323 15.0352 11.3307 14.667 11.3307H12.0003C10.1594 11.3307 8.66699 9.83834 8.66699 7.9974Z" fill="#E6E8EC"/>
<path d="M12.6663 8.0026C12.6663 8.37079 12.3679 8.66927 11.9997 8.66927C11.6315 8.66927 11.333 8.37079 11.333 8.0026C11.333 7.63441 11.6315 7.33594 11.9997 7.33594C12.3679 7.33594 12.6663 7.63441 12.6663 8.0026Z" fill="#E6E8EC"/>
</svg>
